<?xml version="1.0" encoding="UTF-8" standalone="no"?>
<!-- Created with Inkscape (http://www.inkscape.org/) -->

<svg
   width="38.5mm"
   height="26.5mm"
   viewBox="0 0 38.5 26.5"
   version="1.1"
   id="svg1"
   inkscape:version="1.4 (e7c3feb100, 2024-10-09)"
   sodipodi:docname="lowo_with_loom.svg"
   xmlns:inkscape="http://www.inkscape.org/namespaces/inkscape"
   xmlns:sodipodi="http://sodipodi.sourceforge.net/DTD/sodipodi-0.dtd"
   xmlns="http://www.w3.org/2000/svg"
   xmlns:svg="http://www.w3.org/2000/svg">
  <sodipodi:namedview
     id="namedview1"
     pagecolor="#ffffff"
     bordercolor="#000000"
     borderopacity="0.25"
     inkscape:showpageshadow="2"
     inkscape:pageopacity="0.0"
     inkscape:pagecheckerboard="true"
     inkscape:deskcolor="#d1d1d1"
     inkscape:document-units="mm"
     inkscape:zoom="4.3893395"
     inkscape:cx="60.259635"
     inkscape:cy="95.116816"
     inkscape:window-width="1239"
     inkscape:window-height="1080"
     inkscape:window-x="203"
     inkscape:window-y="214"
     inkscape:window-maximized="1"
     inkscape:current-layer="layer1" />
  <defs
     id="defs1" />
  <g
     inkscape:label="Layer 1"
     inkscape:groupmode="layer"
     id="layer1">
    <g
       id="Ebene_2"
       data-name="Ebene 2"
       transform="matrix(0.26458333,0,0,0.26458333,-16.714173,-3.6510484)">
      <rect
         x="106.31"
         y="65.589996"
         width="49.130001"
         height="27.42"
         style="fill:#8d8f8f;stroke-width:0px"
         id="rect1" />
      <circle
         cx="112.39"
         cy="51.470001"
         r="12.59"
         style="fill:#f7b718;stroke-width:0px"
         id="circle1" />
      <circle
         cx="148.10001"
         cy="51.66"
         r="12.59"
         style="fill:#f7b718;stroke-width:0px"
         id="circle2" />
      <rect
         x="125.06"
         y="60.220001"
         width="9.1499996"
         height="10.35"
         transform="rotate(45,129.63231,65.395462)"
         style="fill:#f7b718;stroke-width:0px"
         id="rect2" />
      <rect
         x="124.61"
         y="93.010002"
         width="11.34"
         height="17.84"
         style="fill:#f7b718;stroke-width:0px"
         id="rect3" />
      <ellipse
         cx="109.3"
         cy="89.239998"
         rx="10.66"
         ry="23.91"
         transform="rotate(-34.76,109.28397,89.227189)"
         style="stroke-width:0px"
         id="ellipse3" />
      <ellipse
         cx="150.92"
         cy="89.400002"
         rx="24.290001"
         ry="10.66"
         transform="rotate(-54.48,150.9373,89.401075)"
         style="stroke-width:0px"
         id="ellipse4" />
      <path
         d="m 132.01,36.98 c -12.1,0 -21.9,-4.25 -21.9,-9.5 0,-5.25 9.81,-9.5 21.9,-9.5 12.1,0 21.9,4.25 21.9,9.5 0,5.25 -9.81,9.5 -21.9,9.5 z"
         style="stroke-width:0px"
         id="path4" />
      <ellipse
         cx="108.91"
         cy="29.91"
         rx="9.6599998"
         ry="3.9100001"
         transform="rotate(-27.07,108.93259,29.91446)"
         style="stroke-width:0px"
         id="ellipse5" />
      <ellipse
         cx="125.46"
         cy="34.880001"
         rx="3.9100001"
         ry="9.6599998"
         transform="rotate(-56.43,125.46037,34.884788)"
         style="stroke-width:0px"
         id="ellipse6" />
      <ellipse
         cx="150.24001"
         cy="29.91"
         rx="3.9100001"
         ry="9.6599998"
         transform="rotate(-56.43,150.24115,29.901796)"
         style="stroke-width:0px"
         id="ellipse7" />
      <circle
         cx="148.27"
         cy="51.209999"
         r="17.389999"
         style="fill:#f7b718;stroke-width:0px"
         id="circle7" />
      <circle
         cx="112.39"
         cy="51.279999"
         r="17.389999"
         style="fill:#f7b718;stroke-width:0px"
         id="circle8" />
      <circle
         cx="94.93"
         cy="64.32"
         r="0.07"
         style="fill:#f7b718;stroke-width:0px"
         id="circle9" />
      <rect
         x="93.830002"
         y="58.060001"
         width="3.95"
         height="11.85"
         rx="1.98"
         ry="1.98"
         style="fill:#c0c4c3;stroke-width:0px"
         id="rect9" />
      <rect
         x="96.919998"
         y="60.759998"
         width="3.95"
         height="11.85"
         rx="1.98"
         ry="1.98"
         transform="rotate(-63.69,98.893533,66.689624)"
         style="fill:#c0c4c3;stroke-width:0px"
         id="rect10" />
      <rect
         x="163.69"
         y="58.860001"
         width="3.95"
         height="11.45"
         style="fill:#c0c4c3;stroke-width:0px"
         id="rect11" />
      <rect
         x="158.58"
         y="61.5"
         width="4.5500002"
         height="11.85"
         rx="1.98"
         ry="1.98"
         transform="rotate(-124.76,160.85245,67.434798)"
         style="fill:#c0c4c3;stroke-width:0px"
         id="rect12" />
      <rect
         x="85.900002"
         y="17.85"
         width="15.71"
         height="23.58"
         rx="7.25"
         ry="7.25"
         transform="rotate(-10.08,93.773398,29.638694)"
         style="fill:#8d8f8f;stroke-width:0px"
         id="rect13" />
      <rect
         x="92.029999"
         y="39.41"
         width="3.78"
         height="5.6500001"
         style="fill:#8d8f8f;stroke-width:0px"
         id="rect14" />
      <rect
         x="97.779999"
         y="20.59"
         width="7.9099998"
         height="9.5900002"
         style="fill:#8d8f8f;stroke-width:0px"
         id="rect15" />
      <rect
         x="155.25"
         y="18.540001"
         width="18.59"
         height="11.94"
         transform="rotate(-9.62,164.47319,24.491589)"
         style="fill:#8d8f8f;stroke-width:0px"
         id="rect16" />
      <rect
         x="157.09"
         y="32.299999"
         width="15.4"
         height="6.5"
         transform="rotate(-115.13,164.78681,35.552584)"
         style="fill:#8d8f8f;stroke-width:0px"
         id="rect17" />
      <rect
         x="165.41"
         y="42.689999"
         width="2.9200001"
         height="1.9"
         style="fill:#8d8f8f;stroke-width:0px"
         id="rect18" />
      <rect
         x="164.78999"
         y="28.809999"
         width="7.6500001"
         height="9.5"
         style="fill:#8d8f8f;stroke-width:0px"
         id="rect19" />
    </g>
    <g
       id="OBJECTS"
       transform="matrix(0.26458333,0,0,0.26458333,-16.714173,-3.6510484)">
      <path
         d="m 168.81,54.61 v 0 c 0,0 0,0 0,0 -0.28,-2.2 -0.67,-4.34 -1.18,-6.43 11.99,-18.87 6.57,-31.25 6.33,-31.78 l -0.63,-1.36 -1.41,0.52 c -10.23,3.74 -21.13,4.31 -24.38,4.4 -5.24,-2.94 -11.1,-4.5 -17.24,-4.5 -6.14,0 -12.03,1.57 -17.28,4.52 -2.29,-0.04 -13.99,-0.41 -24.95,-4.42 l -1.41,-0.52 -0.63,1.36 c -0.24,0.54 -5.79,13.21 6.78,32.47 -1,4.35 -1.53,8.95 -1.53,13.71 0,1.81 0.04,3.57 0.12,5.25 v 0 l 0.1,1.64 c 0.1,1.57 0.23,3.11 0.41,4.6 0.17,1.49 0.38,2.95 0.62,4.36 0.24,1.41 0.52,2.78 0.83,4.11 3.73,15.96 12.48,25.98 25.74,29.39 1.11,0.29 2.24,0.52 3.41,0.72 l 1.29,0.21 v -0.03 c 2.08,0.28 4.26,0.43 6.5,0.43 2.24,0 4.36,-0.14 6.39,-0.41 v 0.02 c 0,0 1.29,-0.21 1.29,-0.21 2.93,-0.47 5.66,-1.24 8.2,-2.29 13.69,-5.66 21.56,-19.62 22.92,-40.89 0,0 0,-0.02 0,-0.03 l 0.1,-1.62 h -0.01 c 0.08,-1.68 0.12,-3.44 0.12,-5.25 0,-2.71 -0.18,-5.37 -0.51,-7.96 z m -3.18,17.48 c -0.04,0.42 -0.08,0.84 -0.12,1.25 -0.03,0.29 -0.07,0.57 -0.1,0.86 -0.05,0.4 -0.1,0.79 -0.15,1.18 -0.04,0.29 -0.08,0.58 -0.12,0.86 -0.05,0.38 -0.11,0.75 -0.17,1.12 -0.05,0.29 -0.09,0.57 -0.14,0.85 -0.06,0.36 -0.12,0.72 -0.19,1.07 -0.05,0.28 -0.11,0.56 -0.16,0.84 -0.07,0.35 -0.14,0.69 -0.22,1.03 -0.06,0.28 -0.12,0.55 -0.19,0.82 -0.08,0.33 -0.16,0.66 -0.24,0.99 -0.07,0.27 -0.14,0.54 -0.21,0.8 -0.09,0.32 -0.17,0.64 -0.27,0.96 -0.07,0.26 -0.15,0.52 -0.23,0.78 -0.09,0.31 -0.19,0.62 -0.29,0.92 -0.08,0.25 -0.16,0.5 -0.24,0.75 -0.1,0.3 -0.21,0.6 -0.32,0.9 -0.09,0.24 -0.17,0.48 -0.26,0.71 -0.11,0.3 -0.23,0.59 -0.35,0.88 -0.09,0.22 -0.18,0.45 -0.27,0.67 -0.12,0.29 -0.25,0.58 -0.38,0.87 -0.09,0.21 -0.19,0.42 -0.29,0.63 -0.14,0.29 -0.28,0.58 -0.43,0.86 -0.1,0.19 -0.19,0.38 -0.29,0.57 -0.16,0.31 -0.33,0.6 -0.49,0.9 -0.09,0.16 -0.17,0.32 -0.26,0.47 -0.21,0.37 -0.43,0.72 -0.65,1.07 -0.05,0.08 -0.1,0.16 -0.15,0.25 -0.28,0.43 -0.56,0.85 -0.85,1.27 -0.05,0.07 -0.1,0.13 -0.14,0.19 -0.25,0.34 -0.49,0.68 -0.75,1.01 -0.1,0.12 -0.2,0.24 -0.29,0.36 -0.21,0.26 -0.43,0.53 -0.64,0.78 -0.12,0.14 -0.24,0.27 -0.36,0.4 -0.2,0.23 -0.41,0.46 -0.62,0.68 -0.13,0.14 -0.27,0.27 -0.4,0.41 -0.21,0.21 -0.41,0.42 -0.62,0.62 -0.14,0.13 -0.29,0.26 -0.43,0.4 -0.21,0.19 -0.42,0.38 -0.64,0.57 -0.15,0.13 -0.31,0.25 -0.46,0.38 -0.21,0.18 -0.43,0.35 -0.65,0.52 -0.16,0.12 -0.32,0.24 -0.48,0.36 -0.22,0.17 -0.45,0.33 -0.67,0.49 -0.17,0.12 -0.34,0.23 -0.51,0.34 -0.23,0.15 -0.46,0.3 -0.69,0.45 -0.17,0.11 -0.35,0.21 -0.53,0.32 -0.24,0.14 -0.48,0.28 -0.72,0.41 -0.18,0.1 -0.37,0.2 -0.55,0.29 -0.24,0.13 -0.49,0.25 -0.74,0.37 -0.19,0.09 -0.38,0.18 -0.57,0.27 -0.25,0.12 -0.51,0.23 -0.76,0.34 -0.2,0.08 -0.39,0.17 -0.59,0.25 -0.26,0.1 -0.52,0.2 -0.79,0.3 -0.2,0.08 -0.4,0.15 -0.61,0.22 -0.27,0.09 -0.54,0.18 -0.81,0.27 -0.21,0.07 -0.42,0.13 -0.63,0.2 -0.27,0.08 -0.55,0.16 -0.83,0.23 -0.22,0.06 -0.44,0.12 -0.66,0.17 -0.28,0.07 -0.56,0.13 -0.84,0.19 -0.23,0.05 -0.46,0.1 -0.69,0.15 -0.05,0.01 -0.1,0.02 -0.14,0.03 -1.06,-3.03 -1.6,-6.21 -1.6,-9.47 0,-15.8 12.79,-28.66 28.56,-28.78 0,0.1 -0.02,0.2 -0.02,0.29 -0.02,0.29 -0.05,0.57 -0.08,0.85 z m -44.05,37.06 c -0.22,-0.04 -0.43,-0.1 -0.64,-0.14 -0.29,-0.07 -0.59,-0.13 -0.87,-0.2 -0.21,-0.05 -0.43,-0.11 -0.64,-0.17 -0.28,-0.08 -0.56,-0.15 -0.84,-0.24 -0.21,-0.06 -0.42,-0.13 -0.63,-0.2 -0.27,-0.09 -0.54,-0.17 -0.81,-0.27 -0.2,-0.07 -0.41,-0.15 -0.61,-0.22 -0.26,-0.1 -0.52,-0.2 -0.78,-0.3 -0.2,-0.08 -0.39,-0.16 -0.59,-0.25 -0.25,-0.11 -0.51,-0.22 -0.76,-0.34 -0.19,-0.09 -0.38,-0.18 -0.57,-0.27 -0.25,-0.12 -0.49,-0.25 -0.74,-0.38 -0.18,-0.1 -0.37,-0.19 -0.54,-0.29 -0.24,-0.13 -0.48,-0.27 -0.72,-0.41 -0.17,-0.1 -0.35,-0.21 -0.52,-0.31 -0.24,-0.15 -0.47,-0.3 -0.7,-0.45 -0.17,-0.11 -0.33,-0.22 -0.49,-0.34 -0.23,-0.16 -0.46,-0.33 -0.68,-0.49 -0.16,-0.12 -0.31,-0.23 -0.47,-0.35 -0.23,-0.18 -0.45,-0.36 -0.67,-0.54 -0.14,-0.12 -0.29,-0.24 -0.43,-0.36 -0.22,-0.2 -0.45,-0.4 -0.67,-0.6 -0.13,-0.12 -0.27,-0.24 -0.4,-0.37 -0.23,-0.22 -0.45,-0.44 -0.67,-0.67 -0.12,-0.12 -0.23,-0.23 -0.35,-0.36 -0.23,-0.25 -0.46,-0.5 -0.69,-0.76 -0.1,-0.11 -0.19,-0.21 -0.29,-0.32 -0.26,-0.3 -0.5,-0.6 -0.75,-0.91 -0.06,-0.08 -0.12,-0.15 -0.18,-0.22 -0.92,-1.18 -1.77,-2.46 -2.56,-3.82 -0.05,-0.08 -0.09,-0.17 -0.14,-0.25 -0.21,-0.37 -0.41,-0.74 -0.62,-1.13 -0.07,-0.13 -0.13,-0.27 -0.2,-0.4 -0.17,-0.34 -0.34,-0.68 -0.51,-1.03 -0.07,-0.16 -0.15,-0.33 -0.22,-0.49 -0.15,-0.33 -0.3,-0.67 -0.45,-1.01 -0.08,-0.18 -0.15,-0.37 -0.22,-0.55 -0.13,-0.33 -0.27,-0.66 -0.4,-1 -0.07,-0.2 -0.15,-0.4 -0.22,-0.6 C 98.22,87.81 98.1,87.47 97.98,87.13 97.91,86.92 97.84,86.7 97.77,86.48 97.66,86.14 97.55,85.8 97.45,85.46 97.38,85.23 97.32,85 97.25,84.77 97.15,84.43 97.05,84.08 96.96,83.73 96.9,83.49 96.84,83.25 96.77,83.01 96.68,82.66 96.6,82.3 96.51,81.94 96.45,81.69 96.39,81.44 96.34,81.19 96.26,80.83 96.19,80.47 96.11,80.1 96.06,79.84 96,79.57 95.95,79.31 95.88,78.94 95.82,78.57 95.75,78.2 95.7,77.93 95.66,77.65 95.61,77.37 95.55,76.99 95.49,76.62 95.44,76.24 95.4,75.95 95.36,75.67 95.32,75.38 95.27,75 95.22,74.61 95.18,74.22 95.14,73.93 95.11,73.63 95.08,73.33 95.04,72.94 95,72.54 94.96,72.14 94.93,71.83 94.9,71.53 94.87,71.22 c 0,-0.09 -0.01,-0.17 -0.02,-0.26 15.72,0.18 28.44,13.02 28.44,28.78 0,3.24 -0.53,6.42 -1.59,9.45 -0.05,0 -0.1,-0.02 -0.15,-0.03 z M 109.64,26.31 c 6.66,1.11 12.35,5.12 15.73,10.67 -3.45,-3.09 -7.99,-4.99 -12.98,-4.99 -3.78,0 -7.3,1.1 -10.29,2.97 2.14,-3.34 4.67,-6.25 7.54,-8.65 z m 48.94,8.77 C 155.55,33.14 151.96,32 148.1,32 c -4.85,0 -9.29,1.8 -12.71,4.75 3.4,-5.43 9.01,-9.33 15.57,-10.43 2.9,2.43 5.46,5.38 7.61,8.77 z m 7.49,27.49 c 0,1.77 -0.04,3.49 -0.12,5.13 -3.54,0 -6.94,0.59 -10.13,1.65 4.53,-1.96 8.17,-5.6 10.14,-10.13 0.06,1.1 0.1,2.22 0.1,3.35 z M 112.4,35.25 c 8.95,0 16.23,7.28 16.23,16.23 0,8.95 -7.28,16.23 -16.23,16.23 -8.95,0 -16.23,-7.28 -16.23,-16.23 0,-8.95 7.28,-16.23 16.23,-16.23 z m 17.86,23.99 c 1.06,2.44 2.62,4.61 4.53,6.4 l -4.77,4.77 -4.54,-4.54 c 2.03,-1.84 3.67,-4.09 4.79,-6.64 z m 1.62,-7.77 c 0,-8.95 7.28,-16.23 16.23,-16.23 8.95,0 16.23,7.28 16.23,16.23 0,8.95 -7.28,16.23 -16.23,16.23 -8.95,0 -16.23,-7.28 -16.23,-16.23 z M 94.55,62.56 c 0,-1.06 0.04,-2.1 0.09,-3.14 1.99,4.43 5.58,7.99 10.04,9.92 -3.15,-1.05 -6.52,-1.64 -10.01,-1.65 -0.08,-1.64 -0.12,-3.36 -0.12,-5.13 z m 12.14,7.53 c 1.8,0.55 3.72,0.86 5.71,0.86 3.86,0 7.44,-1.14 10.47,-3.08 l 7.14,7.14 7.32,-7.33 c 3.09,2.06 6.79,3.26 10.77,3.26 1.99,0 3.9,-0.3 5.71,-0.86 -9.18,3.77 -16.23,11.69 -18.81,21.41 -1.5,0.15 -3.05,0.23 -4.69,0.23 -1.64,0 -3.27,-0.1 -4.81,-0.26 -2.59,-9.7 -9.64,-17.6 -18.8,-21.37 z M 166.41,43.9 c -1.92,-5.78 -4.76,-10.97 -8.43,-15.3 -0.77,-0.91 -1.57,-1.76 -2.4,-2.58 4.4,0.16 8.61,1.55 12.21,4.07 l 1.86,-2.66 c -4.39,-3.07 -9.54,-4.69 -14.92,-4.69 -0.16,0 -0.33,0 -0.49,0.01 4.67,-0.49 10.93,-1.5 17.21,-3.6 0.85,3.32 2.02,12.3 -5.05,24.76 z M 146.55,23.16 v 0.04 h 0.06 c 0.3,0.18 0.61,0.36 0.91,0.55 -7.95,2.3 -14.36,8.28 -17.22,15.98 -2.86,-7.7 -9.27,-13.69 -17.22,-15.98 5.05,-3.25 10.9,-5.08 17.22,-5.08 5.93,0 11.43,1.6 16.25,4.48 z M 88.54,19.14 c 6.25,2.09 12.48,3.11 17.15,3.6 -5.31,0.03 -10.41,1.65 -14.75,4.68 l 1.86,2.66 c 3.61,-2.52 7.82,-3.91 12.21,-4.07 -0.83,0.82 -1.63,1.67 -2.4,2.58 -3.81,4.5 -6.72,9.93 -8.64,15.98 -7.5,-12.82 -6.3,-22.06 -5.44,-25.43 z m 36.43,90.54 c 1.05,-3.21 1.59,-6.55 1.59,-9.96 0,-1.68 -0.13,-3.32 -0.38,-4.93 1.34,0.11 2.7,0.18 4.11,0.18 1.41,0 2.7,-0.06 3.99,-0.16 -0.25,1.6 -0.38,3.24 -0.38,4.9 0,3.42 0.54,6.77 1.6,9.98 -1.67,0.19 -3.41,0.29 -5.21,0.29 -1.8,0 -3.62,-0.1 -5.32,-0.3 z"
         style="stroke-width:0px"
         id="path19" />
      <path
         d="m 168.81,54.61 v 0 c 0,0 0,0 0,0 -0.28,-2.2 -0.67,-4.34 -1.18,-6.43 11.99,-18.87 6.57,-31.25 6.33,-31.78 l -0.63,-1.36 -1.41,0.52 c -10.23,3.74 -21.13,4.31 -24.38,4.4 -5.24,-2.94 -11.1,-4.5 -17.24,-4.5 -6.14,0 -12.03,1.57 -17.28,4.52 -2.29,-0.04 -13.99,-0.41 -24.95,-4.42 l -1.41,-0.52 -0.63,1.36 c -0.24,0.54 -5.79,13.21 6.78,32.47 -1,4.35 -1.53,8.95 -1.53,13.71 0,1.81 0.04,3.57 0.12,5.25 v 0 l 0.1,1.64 c 0.1,1.57 0.23,3.11 0.41,4.6 0.17,1.49 0.38,2.95 0.62,4.36 0.24,1.41 0.52,2.78 0.83,4.11 3.73,15.96 12.48,25.98 25.74,29.39 1.11,0.29 2.24,0.52 3.41,0.72 l 1.29,0.21 v -0.03 c 2.08,0.28 4.26,0.43 6.5,0.43 2.24,0 4.36,-0.14 6.39,-0.41 v 0.02 c 0,0 1.29,-0.21 1.29,-0.21 2.93,-0.47 5.66,-1.24 8.2,-2.29 13.69,-5.66 21.56,-19.62 22.92,-40.89 0,0 0,-0.02 0,-0.03 l 0.1,-1.62 h -0.01 c 0.08,-1.68 0.12,-3.44 0.12,-5.25 0,-2.71 -0.18,-5.37 -0.51,-7.96 z m -3.18,17.48 c -0.04,0.42 -0.08,0.84 -0.12,1.25 -0.03,0.29 -0.07,0.57 -0.1,0.86 -0.05,0.4 -0.1,0.79 -0.15,1.18 -0.04,0.29 -0.08,0.58 -0.12,0.86 -0.05,0.38 -0.11,0.75 -0.17,1.12 -0.05,0.29 -0.09,0.57 -0.14,0.85 -0.06,0.36 -0.12,0.72 -0.19,1.07 -0.05,0.28 -0.11,0.56 -0.16,0.84 -0.07,0.35 -0.14,0.69 -0.22,1.03 -0.06,0.28 -0.12,0.55 -0.19,0.82 -0.08,0.33 -0.16,0.66 -0.24,0.99 -0.07,0.27 -0.14,0.54 -0.21,0.8 -0.09,0.32 -0.17,0.64 -0.27,0.96 -0.07,0.26 -0.15,0.52 -0.23,0.78 -0.09,0.31 -0.19,0.62 -0.29,0.92 -0.08,0.25 -0.16,0.5 -0.24,0.75 -0.1,0.3 -0.21,0.6 -0.32,0.9 -0.09,0.24 -0.17,0.48 -0.26,0.71 -0.11,0.3 -0.23,0.59 -0.35,0.88 -0.09,0.22 -0.18,0.45 -0.27,0.67 -0.12,0.29 -0.25,0.58 -0.38,0.87 -0.09,0.21 -0.19,0.42 -0.29,0.63 -0.14,0.29 -0.28,0.58 -0.43,0.86 -0.1,0.19 -0.19,0.38 -0.29,0.57 -0.16,0.31 -0.33,0.6 -0.49,0.9 -0.09,0.16 -0.17,0.32 -0.26,0.47 -0.21,0.37 -0.43,0.72 -0.65,1.07 -0.05,0.08 -0.1,0.16 -0.15,0.25 -0.28,0.43 -0.56,0.85 -0.85,1.27 -0.05,0.07 -0.1,0.13 -0.14,0.19 -0.25,0.34 -0.49,0.68 -0.75,1.01 -0.1,0.12 -0.2,0.24 -0.29,0.36 -0.21,0.26 -0.43,0.53 -0.64,0.78 -0.12,0.14 -0.24,0.27 -0.36,0.4 -0.2,0.23 -0.41,0.46 -0.62,0.68 -0.13,0.14 -0.27,0.27 -0.4,0.41 -0.21,0.21 -0.41,0.42 -0.62,0.62 -0.14,0.13 -0.29,0.26 -0.43,0.4 -0.21,0.19 -0.42,0.38 -0.64,0.57 -0.15,0.13 -0.31,0.25 -0.46,0.38 -0.21,0.18 -0.43,0.35 -0.65,0.52 -0.16,0.12 -0.32,0.24 -0.48,0.36 -0.22,0.17 -0.45,0.33 -0.67,0.49 -0.17,0.12 -0.34,0.23 -0.51,0.34 -0.23,0.15 -0.46,0.3 -0.69,0.45 -0.17,0.11 -0.35,0.21 -0.53,0.32 -0.24,0.14 -0.48,0.28 -0.72,0.41 -0.18,0.1 -0.37,0.2 -0.55,0.29 -0.24,0.13 -0.49,0.25 -0.74,0.37 -0.19,0.09 -0.38,0.18 -0.57,0.27 -0.25,0.12 -0.51,0.23 -0.76,0.34 -0.2,0.08 -0.39,0.17 -0.59,0.25 -0.26,0.1 -0.52,0.2 -0.79,0.3 -0.2,0.08 -0.4,0.15 -0.61,0.22 -0.27,0.09 -0.54,0.18 -0.81,0.27 -0.21,0.07 -0.42,0.13 -0.63,0.2 -0.27,0.08 -0.55,0.16 -0.83,0.23 -0.22,0.06 -0.44,0.12 -0.66,0.17 -0.28,0.07 -0.56,0.13 -0.84,0.19 -0.23,0.05 -0.46,0.1 -0.69,0.15 -0.05,0.01 -0.1,0.02 -0.14,0.03 -1.06,-3.03 -1.6,-6.21 -1.6,-9.47 0,-15.8 12.79,-28.66 28.56,-28.78 0,0.1 -0.02,0.2 -0.02,0.29 -0.02,0.29 -0.05,0.57 -0.08,0.85 z m -44.05,37.06 c -0.22,-0.04 -0.43,-0.1 -0.64,-0.14 -0.29,-0.07 -0.59,-0.13 -0.87,-0.2 -0.21,-0.05 -0.43,-0.11 -0.64,-0.17 -0.28,-0.08 -0.56,-0.15 -0.84,-0.24 -0.21,-0.06 -0.42,-0.13 -0.63,-0.2 -0.27,-0.09 -0.54,-0.17 -0.81,-0.27 -0.2,-0.07 -0.41,-0.15 -0.61,-0.22 -0.26,-0.1 -0.52,-0.2 -0.78,-0.3 -0.2,-0.08 -0.39,-0.16 -0.59,-0.25 -0.25,-0.11 -0.51,-0.22 -0.76,-0.34 -0.19,-0.09 -0.38,-0.18 -0.57,-0.27 -0.25,-0.12 -0.49,-0.25 -0.74,-0.38 -0.18,-0.1 -0.37,-0.19 -0.54,-0.29 -0.24,-0.13 -0.48,-0.27 -0.72,-0.41 -0.17,-0.1 -0.35,-0.21 -0.52,-0.31 -0.24,-0.15 -0.47,-0.3 -0.7,-0.45 -0.17,-0.11 -0.33,-0.22 -0.49,-0.34 -0.23,-0.16 -0.46,-0.33 -0.68,-0.49 -0.16,-0.12 -0.31,-0.23 -0.47,-0.35 -0.23,-0.18 -0.45,-0.36 -0.67,-0.54 -0.14,-0.12 -0.29,-0.24 -0.43,-0.36 -0.22,-0.2 -0.45,-0.4 -0.67,-0.6 -0.13,-0.12 -0.27,-0.24 -0.4,-0.37 -0.23,-0.22 -0.45,-0.44 -0.67,-0.67 -0.12,-0.12 -0.23,-0.23 -0.35,-0.36 -0.23,-0.25 -0.46,-0.5 -0.69,-0.76 -0.1,-0.11 -0.19,-0.21 -0.29,-0.32 -0.26,-0.3 -0.5,-0.6 -0.75,-0.91 -0.06,-0.08 -0.12,-0.15 -0.18,-0.22 -0.92,-1.18 -1.77,-2.46 -2.56,-3.82 -0.05,-0.08 -0.09,-0.17 -0.14,-0.25 -0.21,-0.37 -0.41,-0.74 -0.62,-1.13 -0.07,-0.13 -0.13,-0.27 -0.2,-0.4 -0.17,-0.34 -0.34,-0.68 -0.51,-1.03 -0.07,-0.16 -0.15,-0.33 -0.22,-0.49 -0.15,-0.33 -0.3,-0.67 -0.45,-1.01 -0.08,-0.18 -0.15,-0.37 -0.22,-0.55 -0.13,-0.33 -0.27,-0.66 -0.4,-1 -0.07,-0.2 -0.15,-0.4 -0.22,-0.6 C 98.22,87.81 98.1,87.47 97.98,87.13 97.91,86.92 97.84,86.7 97.77,86.48 97.66,86.14 97.55,85.8 97.45,85.46 97.38,85.23 97.32,85 97.25,84.77 97.15,84.43 97.05,84.08 96.96,83.73 96.9,83.49 96.84,83.25 96.77,83.01 96.68,82.66 96.6,82.3 96.51,81.94 96.45,81.69 96.39,81.44 96.34,81.19 96.26,80.83 96.19,80.47 96.11,80.1 96.06,79.84 96,79.57 95.95,79.31 95.88,78.94 95.82,78.57 95.75,78.2 95.7,77.93 95.66,77.65 95.61,77.37 95.55,76.99 95.49,76.62 95.44,76.24 95.4,75.95 95.36,75.67 95.32,75.38 95.27,75 95.22,74.61 95.18,74.22 95.14,73.93 95.11,73.63 95.08,73.33 95.04,72.94 95,72.54 94.96,72.14 94.93,71.83 94.9,71.53 94.87,71.22 c 0,-0.09 -0.01,-0.17 -0.02,-0.26 15.72,0.18 28.44,13.02 28.44,28.78 0,3.24 -0.53,6.42 -1.59,9.45 -0.05,0 -0.1,-0.02 -0.15,-0.03 z M 109.64,26.31 c 6.66,1.11 12.35,5.12 15.73,10.67 -3.45,-3.09 -7.99,-4.99 -12.98,-4.99 -3.78,0 -7.3,1.1 -10.29,2.97 2.14,-3.34 4.67,-6.25 7.54,-8.65 z m 48.94,8.77 C 155.55,33.14 151.96,32 148.1,32 c -4.85,0 -9.29,1.8 -12.71,4.75 3.4,-5.43 9.01,-9.33 15.57,-10.43 2.9,2.43 5.46,5.38 7.61,8.77 z m 7.49,27.49 c 0,1.77 -0.04,3.49 -0.12,5.13 -3.54,0 -6.94,0.59 -10.13,1.65 4.53,-1.96 8.17,-5.6 10.14,-10.13 0.06,1.1 0.1,2.22 0.1,3.35 z M 112.4,35.25 c 8.95,0 16.23,7.28 16.23,16.23 0,8.95 -7.28,16.23 -16.23,16.23 -8.95,0 -16.23,-7.28 -16.23,-16.23 0,-8.95 7.28,-16.23 16.23,-16.23 z m 17.86,23.99 c 1.06,2.44 2.62,4.61 4.53,6.4 l -4.77,4.77 -4.54,-4.54 c 2.03,-1.84 3.67,-4.09 4.79,-6.64 z m 1.62,-7.77 c 0,-8.95 7.28,-16.23 16.23,-16.23 8.95,0 16.23,7.28 16.23,16.23 0,8.95 -7.28,16.23 -16.23,16.23 -8.95,0 -16.23,-7.28 -16.23,-16.23 z M 94.55,62.56 c 0,-1.06 0.04,-2.1 0.09,-3.14 1.99,4.43 5.58,7.99 10.04,9.92 -3.15,-1.05 -6.52,-1.64 -10.01,-1.65 -0.08,-1.64 -0.12,-3.36 -0.12,-5.13 z m 12.14,7.53 c 1.8,0.55 3.72,0.86 5.71,0.86 3.86,0 7.44,-1.14 10.47,-3.08 l 7.14,7.14 7.32,-7.33 c 3.09,2.06 6.79,3.26 10.77,3.26 1.99,0 3.9,-0.3 5.71,-0.86 -9.18,3.77 -16.23,11.69 -18.81,21.41 -1.5,0.15 -3.05,0.23 -4.69,0.23 -1.64,0 -3.27,-0.1 -4.81,-0.26 -2.59,-9.7 -9.64,-17.6 -18.8,-21.37 z M 166.41,43.9 c -1.92,-5.78 -4.76,-10.97 -8.43,-15.3 -0.77,-0.91 -1.57,-1.76 -2.4,-2.58 4.4,0.16 8.61,1.55 12.21,4.07 l 1.86,-2.66 c -4.39,-3.07 -9.54,-4.69 -14.92,-4.69 -0.16,0 -0.33,0 -0.49,0.01 4.67,-0.49 10.93,-1.5 17.21,-3.6 0.85,3.32 2.02,12.3 -5.05,24.76 z M 146.55,23.16 v 0.04 h 0.06 c 0.3,0.18 0.61,0.36 0.91,0.55 -7.95,2.3 -14.36,8.28 -17.22,15.98 -2.86,-7.7 -9.27,-13.69 -17.22,-15.98 5.05,-3.25 10.9,-5.08 17.22,-5.08 5.93,0 11.43,1.6 16.25,4.48 z M 88.54,19.14 c 6.25,2.09 12.48,3.11 17.15,3.6 -5.31,0.03 -10.41,1.65 -14.75,4.68 l 1.86,2.66 c 3.61,-2.52 7.82,-3.91 12.21,-4.07 -0.83,0.82 -1.63,1.67 -2.4,2.58 -3.81,4.5 -6.72,9.93 -8.64,15.98 -7.5,-12.82 -6.3,-22.06 -5.44,-25.43 z m 36.43,90.54 c 1.05,-3.21 1.59,-6.55 1.59,-9.96 0,-1.68 -0.13,-3.32 -0.38,-4.93 1.34,0.11 2.7,0.18 4.11,0.18 1.41,0 2.7,-0.06 3.99,-0.16 -0.25,1.6 -0.38,3.24 -0.38,4.9 0,3.42 0.54,6.77 1.6,9.98 -1.67,0.19 -3.41,0.29 -5.21,0.29 -1.8,0 -3.62,-0.1 -5.32,-0.3 z"
         style="stroke-width:0px"
         id="path20" />
      <path
         d="m 168.81,54.61 v 0 c 0,0 0,0 0,0 -0.28,-2.2 -0.67,-4.34 -1.18,-6.43 11.99,-18.87 6.57,-31.25 6.33,-31.78 l -0.63,-1.36 -1.41,0.52 c -10.23,3.74 -21.13,4.31 -24.38,4.4 -5.24,-2.94 -11.1,-4.5 -17.24,-4.5 -6.14,0 -12.03,1.57 -17.28,4.52 -2.29,-0.04 -13.99,-0.41 -24.95,-4.42 l -1.41,-0.52 -0.63,1.36 c -0.24,0.54 -5.79,13.21 6.78,32.47 -1,4.35 -1.53,8.95 -1.53,13.71 0,1.81 0.04,3.57 0.12,5.25 v 0 l 0.1,1.64 c 0.1,1.57 0.23,3.11 0.41,4.6 0.17,1.49 0.38,2.95 0.62,4.36 0.24,1.41 0.52,2.78 0.83,4.11 3.73,15.96 12.48,25.98 25.74,29.39 1.11,0.29 2.24,0.52 3.41,0.72 l 1.29,0.21 v -0.03 c 2.08,0.28 4.26,0.43 6.5,0.43 2.24,0 4.36,-0.14 6.39,-0.41 v 0.02 c 0,0 1.29,-0.21 1.29,-0.21 2.93,-0.47 5.66,-1.24 8.2,-2.29 13.69,-5.66 21.56,-19.62 22.92,-40.89 0,0 0,-0.02 0,-0.03 l 0.1,-1.62 h -0.01 c 0.08,-1.68 0.12,-3.44 0.12,-5.25 0,-2.71 -0.18,-5.37 -0.51,-7.96 z m -3.18,17.48 c -0.04,0.42 -0.08,0.84 -0.12,1.25 -0.03,0.29 -0.07,0.57 -0.1,0.86 -0.05,0.4 -0.1,0.79 -0.15,1.18 -0.04,0.29 -0.08,0.58 -0.12,0.86 -0.05,0.38 -0.11,0.75 -0.17,1.12 -0.05,0.29 -0.09,0.57 -0.14,0.85 -0.06,0.36 -0.12,0.72 -0.19,1.07 -0.05,0.28 -0.11,0.56 -0.16,0.84 -0.07,0.35 -0.14,0.69 -0.22,1.03 -0.06,0.28 -0.12,0.55 -0.19,0.82 -0.08,0.33 -0.16,0.66 -0.24,0.99 -0.07,0.27 -0.14,0.54 -0.21,0.8 -0.09,0.32 -0.17,0.64 -0.27,0.96 -0.07,0.26 -0.15,0.52 -0.23,0.78 -0.09,0.31 -0.19,0.62 -0.29,0.92 -0.08,0.25 -0.16,0.5 -0.24,0.75 -0.1,0.3 -0.21,0.6 -0.32,0.9 -0.09,0.24 -0.17,0.48 -0.26,0.71 -0.11,0.3 -0.23,0.59 -0.35,0.88 -0.09,0.22 -0.18,0.45 -0.27,0.67 -0.12,0.29 -0.25,0.58 -0.38,0.87 -0.09,0.21 -0.19,0.42 -0.29,0.63 -0.14,0.29 -0.28,0.58 -0.43,0.86 -0.1,0.19 -0.19,0.38 -0.29,0.57 -0.16,0.31 -0.33,0.6 -0.49,0.9 -0.09,0.16 -0.17,0.32 -0.26,0.47 -0.21,0.37 -0.43,0.72 -0.65,1.07 -0.05,0.08 -0.1,0.16 -0.15,0.25 -0.28,0.43 -0.56,0.85 -0.85,1.27 -0.05,0.07 -0.1,0.13 -0.14,0.19 -0.25,0.34 -0.49,0.68 -0.75,1.01 -0.1,0.12 -0.2,0.24 -0.29,0.36 -0.21,0.26 -0.43,0.53 -0.64,0.78 -0.12,0.14 -0.24,0.27 -0.36,0.4 -0.2,0.23 -0.41,0.46 -0.62,0.68 -0.13,0.14 -0.27,0.27 -0.4,0.41 -0.21,0.21 -0.41,0.42 -0.62,0.62 -0.14,0.13 -0.29,0.26 -0.43,0.4 -0.21,0.19 -0.42,0.38 -0.64,0.57 -0.15,0.13 -0.31,0.25 -0.46,0.38 -0.21,0.18 -0.43,0.35 -0.65,0.52 -0.16,0.12 -0.32,0.24 -0.48,0.36 -0.22,0.17 -0.45,0.33 -0.67,0.49 -0.17,0.12 -0.34,0.23 -0.51,0.34 -0.23,0.15 -0.46,0.3 -0.69,0.45 -0.17,0.11 -0.35,0.21 -0.53,0.32 -0.24,0.14 -0.48,0.28 -0.72,0.41 -0.18,0.1 -0.37,0.2 -0.55,0.29 -0.24,0.13 -0.49,0.25 -0.74,0.37 -0.19,0.09 -0.38,0.18 -0.57,0.27 -0.25,0.12 -0.51,0.23 -0.76,0.34 -0.2,0.08 -0.39,0.17 -0.59,0.25 -0.26,0.1 -0.52,0.2 -0.79,0.3 -0.2,0.08 -0.4,0.15 -0.61,0.22 -0.27,0.09 -0.54,0.18 -0.81,0.27 -0.21,0.07 -0.42,0.13 -0.63,0.2 -0.27,0.08 -0.55,0.16 -0.83,0.23 -0.22,0.06 -0.44,0.12 -0.66,0.17 -0.28,0.07 -0.56,0.13 -0.84,0.19 -0.23,0.05 -0.46,0.1 -0.69,0.15 -0.05,0.01 -0.1,0.02 -0.14,0.03 -1.06,-3.03 -1.6,-6.21 -1.6,-9.47 0,-15.8 12.79,-28.66 28.56,-28.78 0,0.1 -0.02,0.2 -0.02,0.29 -0.02,0.29 -0.05,0.57 -0.08,0.85 z m -44.05,37.06 c -0.22,-0.04 -0.43,-0.1 -0.64,-0.14 -0.29,-0.07 -0.59,-0.13 -0.87,-0.2 -0.21,-0.05 -0.43,-0.11 -0.64,-0.17 -0.28,-0.08 -0.56,-0.15 -0.84,-0.24 -0.21,-0.06 -0.42,-0.13 -0.63,-0.2 -0.27,-0.09 -0.54,-0.17 -0.81,-0.27 -0.2,-0.07 -0.41,-0.15 -0.61,-0.22 -0.26,-0.1 -0.52,-0.2 -0.78,-0.3 -0.2,-0.08 -0.39,-0.16 -0.59,-0.25 -0.25,-0.11 -0.51,-0.22 -0.76,-0.34 -0.19,-0.09 -0.38,-0.18 -0.57,-0.27 -0.25,-0.12 -0.49,-0.25 -0.74,-0.38 -0.18,-0.1 -0.37,-0.19 -0.54,-0.29 -0.24,-0.13 -0.48,-0.27 -0.72,-0.41 -0.17,-0.1 -0.35,-0.21 -0.52,-0.31 -0.24,-0.15 -0.47,-0.3 -0.7,-0.45 -0.17,-0.11 -0.33,-0.22 -0.49,-0.34 -0.23,-0.16 -0.46,-0.33 -0.68,-0.49 -0.16,-0.12 -0.31,-0.23 -0.47,-0.35 -0.23,-0.18 -0.45,-0.36 -0.67,-0.54 -0.14,-0.12 -0.29,-0.24 -0.43,-0.36 -0.22,-0.2 -0.45,-0.4 -0.67,-0.6 -0.13,-0.12 -0.27,-0.24 -0.4,-0.37 -0.23,-0.22 -0.45,-0.44 -0.67,-0.67 -0.12,-0.12 -0.23,-0.23 -0.35,-0.36 -0.23,-0.25 -0.46,-0.5 -0.69,-0.76 -0.1,-0.11 -0.19,-0.21 -0.29,-0.32 -0.26,-0.3 -0.5,-0.6 -0.75,-0.91 -0.06,-0.08 -0.12,-0.15 -0.18,-0.22 -0.92,-1.18 -1.77,-2.46 -2.56,-3.82 -0.05,-0.08 -0.09,-0.17 -0.14,-0.25 -0.21,-0.37 -0.41,-0.74 -0.62,-1.13 -0.07,-0.13 -0.13,-0.27 -0.2,-0.4 -0.17,-0.34 -0.34,-0.68 -0.51,-1.03 -0.07,-0.16 -0.15,-0.33 -0.22,-0.49 -0.15,-0.33 -0.3,-0.67 -0.45,-1.01 -0.08,-0.18 -0.15,-0.37 -0.22,-0.55 -0.13,-0.33 -0.27,-0.66 -0.4,-1 -0.07,-0.2 -0.15,-0.4 -0.22,-0.6 C 98.22,87.81 98.1,87.47 97.98,87.13 97.91,86.92 97.84,86.7 97.77,86.48 97.66,86.14 97.55,85.8 97.45,85.46 97.38,85.23 97.32,85 97.25,84.77 97.15,84.43 97.05,84.08 96.96,83.73 96.9,83.49 96.84,83.25 96.77,83.01 96.68,82.66 96.6,82.3 96.51,81.94 96.45,81.69 96.39,81.44 96.34,81.19 96.26,80.83 96.19,80.47 96.11,80.1 96.06,79.84 96,79.57 95.95,79.31 95.88,78.94 95.82,78.57 95.75,78.2 95.7,77.93 95.66,77.65 95.61,77.37 95.55,76.99 95.49,76.62 95.44,76.24 95.4,75.95 95.36,75.67 95.32,75.38 95.27,75 95.22,74.61 95.18,74.22 95.14,73.93 95.11,73.63 95.08,73.33 95.04,72.94 95,72.54 94.96,72.14 94.93,71.83 94.9,71.53 94.87,71.22 c 0,-0.09 -0.01,-0.17 -0.02,-0.26 15.72,0.18 28.44,13.02 28.44,28.78 0,3.24 -0.53,6.42 -1.59,9.45 -0.05,0 -0.1,-0.02 -0.15,-0.03 z M 109.64,26.31 c 6.66,1.11 12.35,5.12 15.73,10.67 -3.45,-3.09 -7.99,-4.99 -12.98,-4.99 -3.78,0 -7.3,1.1 -10.29,2.97 2.14,-3.34 4.67,-6.25 7.54,-8.65 z m 48.94,8.77 C 155.55,33.14 151.96,32 148.1,32 c -4.85,0 -9.29,1.8 -12.71,4.75 3.4,-5.43 9.01,-9.33 15.57,-10.43 2.9,2.43 5.46,5.38 7.61,8.77 z m 7.49,27.49 c 0,1.77 -0.04,3.49 -0.12,5.13 -3.54,0 -6.94,0.59 -10.13,1.65 4.53,-1.96 8.17,-5.6 10.14,-10.13 0.06,1.1 0.1,2.22 0.1,3.35 z M 112.4,35.25 c 8.95,0 16.23,7.28 16.23,16.23 0,8.95 -7.28,16.23 -16.23,16.23 -8.95,0 -16.23,-7.28 -16.23,-16.23 0,-8.95 7.28,-16.23 16.23,-16.23 z m 17.86,23.99 c 1.06,2.44 2.62,4.61 4.53,6.4 l -4.77,4.77 -4.54,-4.54 c 2.03,-1.84 3.67,-4.09 4.79,-6.64 z m 1.62,-7.77 c 0,-8.95 7.28,-16.23 16.23,-16.23 8.95,0 16.23,7.28 16.23,16.23 0,8.95 -7.28,16.23 -16.23,16.23 -8.95,0 -16.23,-7.28 -16.23,-16.23 z M 94.55,62.56 c 0,-1.06 0.04,-2.1 0.09,-3.14 1.99,4.43 5.58,7.99 10.04,9.92 -3.15,-1.05 -6.52,-1.64 -10.01,-1.65 -0.08,-1.64 -0.12,-3.36 -0.12,-5.13 z m 12.14,7.53 c 1.8,0.55 3.72,0.86 5.71,0.86 3.86,0 7.44,-1.14 10.47,-3.08 l 7.14,7.14 7.32,-7.33 c 3.09,2.06 6.79,3.26 10.77,3.26 1.99,0 3.9,-0.3 5.71,-0.86 -9.18,3.77 -16.23,11.69 -18.81,21.41 -1.5,0.15 -3.05,0.23 -4.69,0.23 -1.64,0 -3.27,-0.1 -4.81,-0.26 -2.59,-9.7 -9.64,-17.6 -18.8,-21.37 z M 166.41,43.9 c -1.92,-5.78 -4.76,-10.97 -8.43,-15.3 -0.77,-0.91 -1.57,-1.76 -2.4,-2.58 4.4,0.16 8.61,1.55 12.21,4.07 l 1.86,-2.66 c -4.39,-3.07 -9.54,-4.69 -14.92,-4.69 -0.16,0 -0.33,0 -0.49,0.01 4.67,-0.49 10.93,-1.5 17.21,-3.6 0.85,3.32 2.02,12.3 -5.05,24.76 z M 146.55,23.16 v 0.04 h 0.06 c 0.3,0.18 0.61,0.36 0.91,0.55 -7.95,2.3 -14.36,8.28 -17.22,15.98 -2.86,-7.7 -9.27,-13.69 -17.22,-15.98 5.05,-3.25 10.9,-5.08 17.22,-5.08 5.93,0 11.43,1.6 16.25,4.48 z M 88.54,19.14 c 6.25,2.09 12.48,3.11 17.15,3.6 -5.31,0.03 -10.41,1.65 -14.75,4.68 l 1.86,2.66 c 3.61,-2.52 7.82,-3.91 12.21,-4.07 -0.83,0.82 -1.63,1.67 -2.4,2.58 -3.81,4.5 -6.72,9.93 -8.64,15.98 -7.5,-12.82 -6.3,-22.06 -5.44,-25.43 z m 36.43,90.54 c 1.05,-3.21 1.59,-6.55 1.59,-9.96 0,-1.68 -0.13,-3.32 -0.38,-4.93 1.34,0.11 2.7,0.18 4.11,0.18 1.41,0 2.7,-0.06 3.99,-0.16 -0.25,1.6 -0.38,3.24 -0.38,4.9 0,3.42 0.54,6.77 1.6,9.98 -1.67,0.19 -3.41,0.29 -5.21,0.29 -1.8,0 -3.62,-0.1 -5.32,-0.3 z"
         style="stroke-width:0px"
         id="path21" />
      <path
         d="m 162.22,51.47 c 0,-7.79 -6.34,-14.12 -14.12,-14.12 -7.78,0 -14.12,6.34 -14.12,14.12 0,7.78 6.33,14.12 14.12,14.12 7.79,0 14.12,-6.33 14.12,-14.12 z m -24.99,0 c 0,-5.99 4.88,-10.87 10.87,-10.87 5.99,0 10.87,4.88 10.87,10.87 0,5.99 -4.88,10.87 -10.87,10.87 -5.99,0 -10.87,-4.88 -10.87,-10.87 z"
         style="stroke-width:0px"
         id="path22" />
      <path
         d="m 112.39,65.59 c 7.79,0 14.12,-6.33 14.12,-14.12 0,-7.79 -6.33,-14.12 -14.12,-14.12 -7.79,0 -14.12,6.34 -14.12,14.12 0,7.78 6.34,14.12 14.12,14.12 z m 0,-24.99 c 5.99,0 10.87,4.88 10.87,10.87 0,5.99 -4.88,10.87 -10.87,10.87 -5.99,0 -10.87,-4.88 -10.87,-10.87 0,-5.99 4.87,-10.87 10.87,-10.87 z"
         style="stroke-width:0px"
         id="path23" />
      <path
         d="m 112.39,65.59 c 7.79,0 14.12,-6.33 14.12,-14.12 0,-7.79 -6.33,-14.12 -14.12,-14.12 -7.79,0 -14.12,6.34 -14.12,14.12 0,7.78 6.34,14.12 14.12,14.12 z m 0,-24.99 c 5.99,0 10.87,4.88 10.87,10.87 0,5.99 -4.88,10.87 -10.87,10.87 -5.99,0 -10.87,-4.88 -10.87,-10.87 0,-5.99 4.87,-10.87 10.87,-10.87 z"
         style="stroke-width:0px"
         id="path24" />
      <path
         d="m 112.39,65.59 c 7.79,0 14.12,-6.33 14.12,-14.12 0,-7.79 -6.33,-14.12 -14.12,-14.12 -7.79,0 -14.12,6.34 -14.12,14.12 0,7.78 6.34,14.12 14.12,14.12 z m 0,-24.99 c 5.99,0 10.87,4.88 10.87,10.87 0,5.99 -4.88,10.87 -10.87,10.87 -5.99,0 -10.87,-4.88 -10.87,-10.87 0,-5.99 4.87,-10.87 10.87,-10.87 z"
         style="stroke-width:0px"
         id="path25" />
      <path
         d="m 153.49,51.47 h -5.39 v -5.39 c -2.98,0 -5.39,2.41 -5.39,5.39 0,2.98 2.41,5.39 5.39,5.39 2.98,0 5.39,-2.41 5.39,-5.39 z"
         style="stroke-width:0px"
         id="path26" />
      <path
         d="m 153.49,51.47 h -5.39 v -5.39 c -2.98,0 -5.39,2.41 -5.39,5.39 0,2.98 2.41,5.39 5.39,5.39 2.98,0 5.39,-2.41 5.39,-5.39 z"
         style="stroke-width:0px"
         id="path27" />
      <path
         d="m 153.49,51.47 h -5.39 v -5.39 c -2.98,0 -5.39,2.41 -5.39,5.39 0,2.98 2.41,5.39 5.39,5.39 2.98,0 5.39,-2.41 5.39,-5.39 z"
         style="stroke-width:0px"
         id="path28" />
      <path
         d="m 112.39,56.86 c 2.98,0 5.39,-2.41 5.39,-5.39 h -5.39 v -5.39 c -2.98,0 -5.39,2.41 -5.39,5.39 0,2.98 2.41,5.39 5.39,5.39 z"
         style="stroke-width:0px"
         id="path29" />
      <path
         d="m 112.39,56.86 c 2.98,0 5.39,-2.41 5.39,-5.39 h -5.39 v -5.39 c -2.98,0 -5.39,2.41 -5.39,5.39 0,2.98 2.41,5.39 5.39,5.39 z"
         style="stroke-width:0px"
         id="path30" />
      <path
         d="m 112.39,56.86 c 2.98,0 5.39,-2.41 5.39,-5.39 h -5.39 v -5.39 c -2.98,0 -5.39,2.41 -5.39,5.39 0,2.98 2.41,5.39 5.39,5.39 z"
         style="stroke-width:0px"
         id="path31" />
    </g>
    <path
       d="m 29.116947,6.5036598 h 2.75961 l 1.82827,2.584979 h 0.0926 l 1.82827,-2.584979 h 2.75961 v 8.1491672 h -2.72521 v -4.262438 h -0.0688 l -1.79388,2.362729 h -0.0926 l -1.79388,-2.362729 h -0.0688 v 4.262438 h -2.72521 z"
       style="fill:#f7b718;stroke-width:0px"
       id="path32" />
    <path
       d="m 7.0877475,11.93291 v 2.153708 H 0.12391045 V 5.9374518 H 2.8491175 V 11.93291 Z"
       style="fill:#f7b718;stroke-width:0px"
       id="path68" />
  </g>
</svg>
