<?xml version="1.0" encoding="UTF-8" standalone="no"?>
<!-- Created with Inkscape (http://www.inkscape.org/) -->

<svg
   width="27mm"
   height="27mm"
   viewBox="0 0 27 27"
   version="1.1"
   id="svg1"
   inkscape:version="1.4 (e7c3feb100, 2024-10-09)"
   sodipodi:docname="lowo_mascot.svg"
   xmlns:inkscape="http://www.inkscape.org/namespaces/inkscape"
   xmlns:sodipodi="http://sodipodi.sourceforge.net/DTD/sodipodi-0.dtd"
   xmlns="http://www.w3.org/2000/svg"
   xmlns:svg="http://www.w3.org/2000/svg">
  <sodipodi:namedview
     id="namedview1"
     pagecolor="#ffffff"
     bordercolor="#000000"
     borderopacity="0.25"
     inkscape:showpageshadow="2"
     inkscape:pageopacity="0.0"
     inkscape:pagecheckerboard="true"
     inkscape:deskcolor="#d1d1d1"
     inkscape:document-units="mm"
     inkscape:zoom="4.3893395"
     inkscape:cx="51.830121"
     inkscape:cy="46.817977"
     inkscape:window-width="1239"
     inkscape:window-height="1080"
     inkscape:window-x="1956"
     inkscape:window-y="229"
     inkscape:window-maximized="1"
     inkscape:current-layer="layer1" />
  <defs
     id="defs1" />
  <g
     inkscape:label="Layer 1"
     inkscape:groupmode="layer"
     id="layer1">
    <rect
       x="7.294704"
       y="13.992694"
       width="12.99898"
       height="7.2548747"
       style="fill:#8d8f8f;stroke-width:0px"
       id="rect32" />
    <circle
       cx="8.9033728"
       cy="10.25413"
       r="3.3311043"
       style="fill:#f7b718;stroke-width:0px"
       id="circle32" />
    <circle
       cx="18.351643"
       cy="10.3044"
       r="3.3311043"
       style="fill:#f7b718;stroke-width:0px"
       id="circle33" />
    <rect
       x="18.16984"
       y="-1.0343074"
       width="2.4209373"
       height="2.7384377"
       transform="rotate(45)"
       style="fill:#f7b718;stroke-width:0px"
       id="rect33" />
    <rect
       x="12.136575"
       y="21.244919"
       width="3.000375"
       height="4.7201667"
       style="fill:#f7b718;stroke-width:0px"
       id="rect34" />
    <ellipse
       cx="-4.8974266"
       cy="21.246492"
       rx="2.8204582"
       ry="6.3261876"
       transform="rotate(-34.759999)"
       style="stroke-width:0px"
       id="ellipse34" />
    <ellipse
       cx="-5.4236007"
       cy="27.335991"
       rx="6.4267292"
       ry="2.8204582"
       transform="rotate(-54.48)"
       style="stroke-width:0px"
       id="ellipse35" />
    <ellipse
       cx="14.094496"
       cy="3.9094234"
       rx="5.7943749"
       ry="2.5135417"
       style="stroke-width:0px"
       id="ellipse36" />
    <ellipse
       cx="5.0316343"
       cy="7.6866984"
       rx="2.5558751"
       ry="1.0345209"
       transform="rotate(-27.07)"
       style="stroke-width:0px"
       id="ellipse37" />
    <ellipse
       cx="1.9453783"
       cy="13.544931"
       rx="1.0345209"
       ry="2.5558748"
       transform="rotate(-56.43)"
       style="stroke-width:0px"
       id="ellipse38" />
    <ellipse
       cx="6.6677237"
       cy="18.277502"
       rx="1.0345209"
       ry="2.5558748"
       transform="rotate(-56.43)"
       style="stroke-width:0px"
       id="ellipse39" />
    <circle
       cx="18.396622"
       cy="10.187984"
       r="4.6011038"
       style="fill:#f7b718;stroke-width:0px"
       id="circle39" />
    <circle
       cx="8.9033728"
       cy="10.206504"
       r="4.6011038"
       style="fill:#f7b718;stroke-width:0px"
       id="circle40" />
    <circle
       cx="4.2837481"
       cy="13.654021"
       r="0.018520834"
       style="fill:#f7b718;stroke-width:0px"
       id="circle41" />
    <rect
       x="3.992702"
       y="11.997733"
       width="1.0451041"
       height="3.1353126"
       rx="0.523875"
       ry="0.523875"
       style="fill:#c0c4c3;stroke-width:0px"
       id="rect41" />
    <rect
       x="-10.958134"
       y="9.5423584"
       width="1.0451041"
       height="3.1353126"
       rx="0.523875"
       ry="0.523875"
       transform="rotate(-63.689999)"
       style="fill:#c0c4c3;stroke-width:0px"
       id="rect42" />
    <rect
       x="22.47385"
       y="12.212043"
       width="1.0451041"
       height="3.029479"
       style="fill:#c0c4c3;stroke-width:0px"
       id="rect43" />
    <rect
       x="-24.880045"
       y="8.0257463"
       width="1.2038542"
       height="3.1353126"
       rx="0.523875"
       ry="0.523875"
       transform="rotate(-124.76)"
       style="fill:#c0c4c3;stroke-width:0px"
       id="rect44" />
    <rect
       x="1.0473801"
       y="1.9880711"
       width="4.1566043"
       height="6.2388749"
       rx="1.9182291"
       ry="1.9182291"
       transform="rotate(-10.079999)"
       style="fill:#8d8f8f;stroke-width:0px"
       id="rect45" />
    <rect
       x="3.5164561"
       y="7.0632548"
       width="1.0001249"
       height="1.4948958"
       style="fill:#8d8f8f;stroke-width:0px"
       id="rect46" />
    <rect
       x="5.037807"
       y="2.0837951"
       width="2.092854"
       height="2.5373542"
       style="fill:#8d8f8f;stroke-width:0px"
       id="rect47" />
    <rect
       x="19.404867"
       y="5.2907557"
       width="4.9186044"
       height="3.1591249"
       transform="rotate(-9.6199996)"
       style="fill:#8d8f8f;stroke-width:0px"
       id="rect48" />
    <rect
       x="-17.174955"
       y="17.18433"
       width="4.0745831"
       height="1.7197917"
       transform="rotate(-115.13)"
       style="fill:#8d8f8f;stroke-width:0px"
       id="rect49" />
    <rect
       x="22.931576"
       y="7.9310889"
       width="0.77258337"
       height="0.50270832"
       style="fill:#8d8f8f;stroke-width:0px"
       id="rect50" />
    <rect
       x="22.767536"
       y="4.2613139"
       width="2.0240624"
       height="2.5135417"
       style="fill:#8d8f8f;stroke-width:0px"
       id="rect51" />
    <path
       d="m 23.831163,11.084921 v 0 c 0,0 0,0 0,0 C 23.757083,10.502837 23.653892,9.936629 23.518955,9.38365 26.691309,4.390963 25.257267,1.115421 25.193767,0.975192 L 25.02708,0.615358 24.654017,0.752942 C 21.94733,1.742483 19.063371,1.893296 18.203476,1.917108 16.817059,1.139233 15.266601,0.726483 13.642059,0.726483 12.017517,0.726483 10.459121,1.141879 9.0700584,1.9224 8.4641624,1.91182 5.3685374,1.813921 2.4687044,0.752942 L 2.0956424,0.615358 1.9289543,0.975192 c -0.0635,0.142875 -1.53193699,3.495146 1.7938751,8.591021 -0.264583,1.150937 -0.404812,2.36802 -0.404812,3.627437 0,0.478896 0.01058,0.944562 0.03175,1.389062 v 0 l 0.02646,0.433917 c 0.02646,0.415396 0.06085,0.822854 0.108479,1.217083 0.04498,0.39423 0.100542,0.780521 0.164042,1.153584 0.0635,0.373062 0.137583,0.735541 0.219604,1.087437 0.986896,4.22275 3.302,6.873875 6.8103756,7.776104 0.293687,0.07673 0.592666,0.137584 0.902229,0.1905 l 0.341312,0.05556 v -0.0079 c 0.550334,0.07408 1.127125,0.113771 1.719792,0.113771 0.592667,0 1.153583,-0.03704 1.690688,-0.108479 v 0.0053 c 0,0 0.341312,-0.05556 0.341312,-0.05556 0.775229,-0.124354 1.497542,-0.328083 2.169583,-0.605896 3.622146,-1.497541 5.704417,-5.191125 6.06425,-10.818812 0,0 0,-0.0053 0,-0.0079 l 0.02646,-0.428625 h -0.0026 c 0.02117,-0.4445 0.03175,-0.910166 0.03175,-1.389062 0,-0.717021 -0.04762,-1.420813 -0.134938,-2.106083 z m -0.841375,4.624916 c -0.01058,0.111125 -0.02117,0.22225 -0.03175,0.33073 -0.0079,0.07673 -0.01852,0.150812 -0.02646,0.227541 -0.01323,0.105834 -0.02646,0.209021 -0.03969,0.312209 -0.01058,0.07673 -0.02117,0.153458 -0.03175,0.227541 -0.01323,0.100542 -0.0291,0.198438 -0.04498,0.296334 -0.01323,0.07673 -0.02381,0.150812 -0.03704,0.224895 -0.01588,0.09525 -0.03175,0.1905 -0.05027,0.283105 -0.01323,0.07408 -0.02911,0.148166 -0.04233,0.22225 -0.01852,0.0926 -0.03704,0.182562 -0.05821,0.27252 -0.01587,0.07408 -0.03175,0.145521 -0.05027,0.216959 -0.02117,0.08731 -0.04233,0.174625 -0.0635,0.261937 -0.01852,0.07144 -0.03704,0.142875 -0.05556,0.211667 -0.02381,0.08467 -0.04498,0.169333 -0.07144,0.254 -0.01852,0.06879 -0.03969,0.137583 -0.06085,0.206375 -0.02381,0.08202 -0.05027,0.164042 -0.07673,0.243417 -0.02117,0.06614 -0.04233,0.132291 -0.0635,0.198437 -0.02646,0.07937 -0.05556,0.15875 -0.08467,0.238125 -0.02381,0.0635 -0.04498,0.127 -0.06879,0.187854 -0.0291,0.07937 -0.06085,0.156104 -0.0926,0.232834 -0.02381,0.05821 -0.04762,0.119062 -0.07144,0.17727 -0.03175,0.07673 -0.06615,0.153459 -0.100542,0.230188 -0.02381,0.05556 -0.05027,0.111125 -0.07673,0.166687 -0.03704,0.07673 -0.07408,0.153459 -0.113771,0.227542 -0.02646,0.05027 -0.05027,0.100542 -0.07673,0.150813 -0.04233,0.08202 -0.08731,0.15875 -0.129646,0.238125 -0.02381,0.04233 -0.04498,0.08467 -0.06879,0.124354 -0.05556,0.0979 -0.11377,0.1905 -0.171979,0.283104 -0.01323,0.02117 -0.02646,0.04498 -0.03969,0.06615 -0.07408,0.113771 -0.148167,0.224896 -0.224896,0.336021 -0.01323,0.01852 -0.02646,0.0344 -0.03704,0.05027 -0.06615,0.08996 -0.129646,0.179917 -0.198437,0.26723 -0.02646,0.03175 -0.05292,0.0635 -0.07673,0.09525 -0.05556,0.06879 -0.113771,0.140229 -0.169334,0.206374 -0.03175,0.03704 -0.0635,0.07144 -0.09525,0.105834 -0.05292,0.06085 -0.108479,0.121708 -0.164041,0.179916 -0.0344,0.03704 -0.07144,0.07144 -0.105834,0.10848 -0.05556,0.05556 -0.108479,0.111125 -0.164041,0.164041 -0.03704,0.0344 -0.07673,0.06879 -0.113771,0.105834 -0.05556,0.05027 -0.111125,0.100541 -0.169334,0.150812 -0.03969,0.0344 -0.08202,0.06615 -0.121708,0.100542 -0.05556,0.04763 -0.113771,0.0926 -0.171979,0.137583 -0.04233,0.03175 -0.08467,0.0635 -0.127,0.09525 -0.05821,0.04498 -0.119063,0.08731 -0.177271,0.129646 -0.04498,0.03175 -0.08996,0.06085 -0.134937,0.08996 -0.06085,0.03969 -0.121709,0.07937 -0.182563,0.119063 -0.04498,0.0291 -0.0926,0.05556 -0.140229,0.08467 -0.0635,0.03704 -0.127,0.07408 -0.1905,0.10848 -0.04762,0.02646 -0.0979,0.05292 -0.145521,0.07673 -0.0635,0.0344 -0.129646,0.06615 -0.195792,0.0979 -0.05027,0.02381 -0.100541,0.04762 -0.150812,0.07144 -0.06615,0.03175 -0.134937,0.06085 -0.201083,0.08996 -0.05292,0.02117 -0.103188,0.04498 -0.156104,0.06615 -0.06879,0.02646 -0.137584,0.05292 -0.209021,0.07937 -0.05292,0.02117 -0.105834,0.03969 -0.161396,0.05821 -0.07144,0.02381 -0.142875,0.04762 -0.214313,0.07144 -0.05556,0.01852 -0.111125,0.0344 -0.166687,0.05292 -0.07144,0.02117 -0.145521,0.04233 -0.219604,0.06085 -0.05821,0.01588 -0.116417,0.03175 -0.174625,0.04498 -0.07408,0.01852 -0.148167,0.0344 -0.22225,0.05027 -0.06085,0.01323 -0.121709,0.02646 -0.182563,0.03969 -0.01323,0.0026 -0.02646,0.0053 -0.03704,0.0079 -0.280459,-0.801688 -0.423334,-1.643063 -0.423334,-2.505604 0,-4.180417 3.384021,-7.582958 7.5565,-7.614708 0,0.02646 -0.0053,0.05292 -0.0053,0.07673 -0.0053,0.07673 -0.01323,0.150812 -0.02117,0.224896 z m -11.654896,9.805459 c -0.05821,-0.01058 -0.11377,-0.02646 -0.169333,-0.03704 -0.07673,-0.01852 -0.156104,-0.0344 -0.230187,-0.05292 -0.05556,-0.01323 -0.113771,-0.0291 -0.169334,-0.04498 -0.07408,-0.02117 -0.148166,-0.03969 -0.22225,-0.0635 -0.05556,-0.01588 -0.111126,-0.0344 -0.166688,-0.05292 -0.07144,-0.02381 -0.142875,-0.04498 -0.214313,-0.07144 -0.05292,-0.01852 -0.108479,-0.03969 -0.161396,-0.05821 -0.06879,-0.02646 -0.1375826,-0.05292 -0.2063746,-0.07937 -0.05292,-0.02117 -0.103187,-0.04233 -0.156104,-0.06615 -0.06615,-0.0291 -0.134937,-0.05821 -0.201083,-0.08996 -0.05027,-0.02381 -0.100542,-0.04763 -0.150813,-0.07144 -0.06615,-0.03175 -0.129645,-0.06615 -0.195791,-0.100542 -0.04763,-0.02646 -0.0979,-0.05027 -0.142875,-0.07673 -0.0635,-0.0344 -0.127,-0.07144 -0.1905,-0.108479 -0.04498,-0.02646 -0.0926,-0.05556 -0.137584,-0.08202 -0.0635,-0.03969 -0.124354,-0.07937 -0.185208,-0.119062 -0.04498,-0.02911 -0.08731,-0.05821 -0.129646,-0.08996 -0.06085,-0.04233 -0.121708,-0.08731 -0.179916,-0.129646 -0.04233,-0.03175 -0.08202,-0.06085 -0.124355,-0.0926 -0.06085,-0.04762 -0.119062,-0.09525 -0.17727,-0.142875 -0.03704,-0.03175 -0.07673,-0.0635 -0.113771,-0.09525 -0.05821,-0.05292 -0.119063,-0.105833 -0.177271,-0.15875 -0.0344,-0.03175 -0.07144,-0.0635 -0.105833,-0.0979 -0.06085,-0.05821 -0.119063,-0.116416 -0.177271,-0.17727 -0.03175,-0.03175 -0.06085,-0.06085 -0.0926,-0.09525 -0.06085,-0.06615 -0.121709,-0.132292 -0.182563,-0.201084 -0.02646,-0.0291 -0.05027,-0.05556 -0.07673,-0.08467 -0.06879,-0.07937 -0.132292,-0.15875 -0.198438,-0.240771 -0.01588,-0.02117 -0.03175,-0.03969 -0.04763,-0.05821 -0.243416,-0.312209 -0.468312,-0.650875 -0.677333,-1.010709 -0.01323,-0.02117 -0.02381,-0.04498 -0.03704,-0.06615 -0.05556,-0.0979 -0.108479,-0.195791 -0.164041,-0.298979 -0.01852,-0.0344 -0.0344,-0.07144 -0.05292,-0.105833 -0.04498,-0.08996 -0.08996,-0.179917 -0.134937,-0.272521 -0.01852,-0.04233 -0.03969,-0.08731 -0.05821,-0.129646 -0.03969,-0.08731 -0.07938,-0.177271 -0.119062,-0.267229 -0.02117,-0.04763 -0.03969,-0.0979 -0.05821,-0.145521 -0.03439,-0.08731 -0.07144,-0.174625 -0.105833,-0.264583 -0.01852,-0.05292 -0.03969,-0.105833 -0.05821,-0.15875 -0.03175,-0.08731 -0.0635,-0.177271 -0.09525,-0.267229 -0.01852,-0.05556 -0.03704,-0.113771 -0.05556,-0.171979 -0.0291,-0.08996 -0.05821,-0.179917 -0.08467,-0.269875 -0.01852,-0.06086 -0.0344,-0.121709 -0.05292,-0.182563 -0.02646,-0.08996 -0.05292,-0.182562 -0.07673,-0.275167 -0.01588,-0.0635 -0.03175,-0.127 -0.05027,-0.1905 -0.02381,-0.0926 -0.04498,-0.187854 -0.06879,-0.283104 -0.01588,-0.06615 -0.03175,-0.132291 -0.04498,-0.198437 -0.02117,-0.09525 -0.03969,-0.1905 -0.06085,-0.288396 -0.01323,-0.06879 -0.0291,-0.140229 -0.04233,-0.209021 -0.01852,-0.0979 -0.0344,-0.195792 -0.05292,-0.293687 -0.01323,-0.07144 -0.02381,-0.145521 -0.03704,-0.219605 -0.01588,-0.100541 -0.03175,-0.198437 -0.04498,-0.298979 -0.01058,-0.07673 -0.02117,-0.150812 -0.03175,-0.227541 -0.01323,-0.100542 -0.02646,-0.20373 -0.03704,-0.306917 -0.01058,-0.07673 -0.01852,-0.156104 -0.02646,-0.235479 -0.01058,-0.103188 -0.02117,-0.209021 -0.03175,-0.314854 -0.0079,-0.08202 -0.01588,-0.161396 -0.02381,-0.243417 0,-0.02381 -0.0026,-0.04498 -0.0053,-0.06879 4.15925,0.04762 7.5247506,3.444875 7.5247506,7.614708 0,0.85725 -0.140229,1.698625 -0.420688,2.500313 -0.01323,0 -0.02646,-0.0053 -0.03969,-0.0079 z M 8.1757664,3.597213 C 9.9378914,3.8909 11.443372,4.951879 12.337663,6.420317 11.424851,5.602754 10.223641,5.100046 8.9033714,5.100046 c -1.000125,0 -1.931459,0.291042 -2.722563,0.785812 0.566208,-0.883708 1.235604,-1.653645 1.994958,-2.288645 z M 21.124476,5.917608 C 20.322788,5.404317 19.372934,5.102692 18.351642,5.102692 c -1.283229,0 -2.457979,0.47625 -3.362854,1.256771 0.899584,-1.436688 2.383896,-2.468563 4.119563,-2.759605 0.767291,0.642938 1.444625,1.423459 2.013479,2.320396 z m 1.981729,7.273396 c 0,0.468313 -0.01058,0.923396 -0.03175,1.357313 -0.936625,0 -1.836209,0.156104 -2.680229,0.436562 1.198562,-0.518583 2.161645,-1.481667 2.682875,-2.680229 0.01587,0.291042 0.02646,0.587375 0.02646,0.886354 z M 8.9060164,5.962588 c 2.3680216,0 4.2941886,1.926166 4.2941886,4.294187 0,2.368021 -1.926167,4.294187 -4.2941886,4.294187 -2.36802,0 -4.294187,-1.926166 -4.294187,-4.294187 0,-2.368021 1.926167,-4.294187 4.294187,-4.294187 z m 4.7254596,6.347354 c 0.280458,0.645583 0.693208,1.219729 1.198562,1.693333 l -1.262062,1.262062 -1.201209,-1.201208 c 0.537105,-0.486833 0.971021,-1.082146 1.267355,-1.756833 z m 0.428625,-2.055813 c 0,-2.368021 1.926166,-4.294187 4.294187,-4.294187 2.368021,0 4.294188,1.926166 4.294188,4.294187 0,2.368021 -1.926167,4.294188 -4.294188,4.294188 -2.368021,0 -4.294187,-1.926167 -4.294187,-4.294188 z m -9.8768966,2.934229 c 0,-0.280458 0.01058,-0.555625 0.02381,-0.830791 0.52652,1.172104 1.476374,2.11402 2.656416,2.624666 -0.833437,-0.277812 -1.725083,-0.433916 -2.648479,-0.436562 -0.02117,-0.433917 -0.03175,-0.889 -0.03175,-1.357313 z m 3.212042,1.992313 c 0.47625,0.145521 0.98425,0.227541 1.51077,0.227541 1.021292,0 1.9685006,-0.301625 2.7701886,-0.814916 l 1.889125,1.889125 1.93675,-1.939396 c 0.817562,0.545042 1.796521,0.862542 2.849562,0.862542 0.526521,0 1.031875,-0.07938 1.510771,-0.227542 -2.428875,0.997479 -4.294187,3.092979 -4.976812,5.664729 -0.396875,0.03969 -0.806979,0.06085 -1.240896,0.06085 -0.433917,0 -0.865188,-0.02646 -1.272646,-0.06879 C 11.686788,18.268355 9.8214754,16.178147 7.3978914,15.180668 Z M 23.196163,8.251233 c -0.508,-1.529291 -1.259417,-2.902479 -2.230437,-4.048125 -0.20373,-0.24077 -0.415396,-0.465666 -0.635,-0.682625 1.164166,0.04233 2.278062,0.410105 3.230562,1.076855 L 24.053413,3.8909 C 22.891892,3.078629 21.529288,2.650004 20.10583,2.650004 c -0.04233,0 -0.08731,0 -0.129646,0.0026 1.235604,-0.129646 2.891896,-0.396875 4.553479,-0.9525 0.224896,0.878417 0.534458,3.254375 -1.336146,6.551083 z M 17.941538,2.763775 v 0.01058 h 0.01588 c 0.07937,0.04763 0.161396,0.09525 0.240771,0.145521 -2.103437,0.608542 -3.799417,2.19075 -4.556125,4.228042 C 12.885356,5.110626 11.189377,3.525772 9.0859384,2.919876 10.422084,2.05998 11.969897,1.575793 13.642064,1.575793 c 1.568979,0 3.024188,0.423333 4.299479,1.185333 z M 2.5930584,1.70015 c 1.653646,0.552979 3.302,0.822854 4.537604,0.9525 -1.404937,0.0079 -2.754312,0.436563 -3.902604,1.23825 l 0.492125,0.706438 c 0.955146,-0.66675 2.069042,-1.034521 3.230563,-1.076855 -0.219605,0.216959 -0.431271,0.441855 -0.635,0.682625 -1.008063,1.190625 -1.778,2.627313 -2.286,4.228042 C 2.0453713,5.039192 2.3628714,2.594442 2.5904124,1.702796 Z M 12.23183,25.655525 c 0.277812,-0.849313 0.420687,-1.733021 0.420687,-2.63525 0,-0.4445 -0.0344,-0.878417 -0.100541,-1.304396 0.354541,0.0291 0.714375,0.04763 1.087437,0.04763 0.373063,0 0.714375,-0.01588 1.055688,-0.04233 -0.06615,0.423333 -0.100542,0.85725 -0.100542,1.296458 0,0.904875 0.142875,1.791229 0.423333,2.640542 -0.441854,0.05027 -0.902229,0.07673 -1.378479,0.07673 -0.47625,0 -0.957791,-0.02646 -1.407583,-0.07937 z"
       style="stroke-width:0px"
       id="path51" />
    <path
       d="m 23.831163,11.084921 v 0 c 0,0 0,0 0,0 C 23.757083,10.502837 23.653892,9.936629 23.518955,9.38365 26.691309,4.390963 25.257267,1.115421 25.193767,0.975192 L 25.02708,0.615358 24.654017,0.752942 C 21.94733,1.742483 19.063371,1.893296 18.203476,1.917108 16.817059,1.139233 15.266601,0.726483 13.642059,0.726483 12.017517,0.726483 10.459121,1.141879 9.0700584,1.9224 8.4641624,1.91182 5.3685374,1.813921 2.4687044,0.752942 L 2.0956424,0.615358 1.9289543,0.975192 c -0.0635,0.142875 -1.53193699,3.495146 1.7938751,8.591021 -0.264583,1.150937 -0.404812,2.36802 -0.404812,3.627437 0,0.478896 0.01058,0.944562 0.03175,1.389062 v 0 l 0.02646,0.433917 c 0.02646,0.415396 0.06085,0.822854 0.108479,1.217083 0.04498,0.39423 0.100542,0.780521 0.164042,1.153584 0.0635,0.373062 0.137583,0.735541 0.219604,1.087437 0.986896,4.22275 3.302,6.873875 6.8103756,7.776104 0.293687,0.07673 0.592666,0.137584 0.902229,0.1905 l 0.341312,0.05556 v -0.0079 c 0.550334,0.07408 1.127125,0.113771 1.719792,0.113771 0.592667,0 1.153583,-0.03704 1.690688,-0.108479 v 0.0053 c 0,0 0.341312,-0.05556 0.341312,-0.05556 0.775229,-0.124354 1.497542,-0.328083 2.169583,-0.605896 3.622146,-1.497541 5.704417,-5.191125 6.06425,-10.818812 0,0 0,-0.0053 0,-0.0079 l 0.02646,-0.428625 h -0.0026 c 0.02117,-0.4445 0.03175,-0.910166 0.03175,-1.389062 0,-0.717021 -0.04762,-1.420813 -0.134938,-2.106083 z m -0.841375,4.624916 c -0.01058,0.111125 -0.02117,0.22225 -0.03175,0.33073 -0.0079,0.07673 -0.01852,0.150812 -0.02646,0.227541 -0.01323,0.105834 -0.02646,0.209021 -0.03969,0.312209 -0.01058,0.07673 -0.02117,0.153458 -0.03175,0.227541 -0.01323,0.100542 -0.0291,0.198438 -0.04498,0.296334 -0.01323,0.07673 -0.02381,0.150812 -0.03704,0.224895 -0.01588,0.09525 -0.03175,0.1905 -0.05027,0.283105 -0.01323,0.07408 -0.02911,0.148166 -0.04233,0.22225 -0.01852,0.0926 -0.03704,0.182562 -0.05821,0.27252 -0.01587,0.07408 -0.03175,0.145521 -0.05027,0.216959 -0.02117,0.08731 -0.04233,0.174625 -0.0635,0.261937 -0.01852,0.07144 -0.03704,0.142875 -0.05556,0.211667 -0.02381,0.08467 -0.04498,0.169333 -0.07144,0.254 -0.01852,0.06879 -0.03969,0.137583 -0.06085,0.206375 -0.02381,0.08202 -0.05027,0.164042 -0.07673,0.243417 -0.02117,0.06614 -0.04233,0.132291 -0.0635,0.198437 -0.02646,0.07937 -0.05556,0.15875 -0.08467,0.238125 -0.02381,0.0635 -0.04498,0.127 -0.06879,0.187854 -0.0291,0.07937 -0.06085,0.156104 -0.0926,0.232834 -0.02381,0.05821 -0.04762,0.119062 -0.07144,0.17727 -0.03175,0.07673 -0.06615,0.153459 -0.100542,0.230188 -0.02381,0.05556 -0.05027,0.111125 -0.07673,0.166687 -0.03704,0.07673 -0.07408,0.153459 -0.113771,0.227542 -0.02646,0.05027 -0.05027,0.100542 -0.07673,0.150813 -0.04233,0.08202 -0.08731,0.15875 -0.129646,0.238125 -0.02381,0.04233 -0.04498,0.08467 -0.06879,0.124354 -0.05556,0.0979 -0.11377,0.1905 -0.171979,0.283104 -0.01323,0.02117 -0.02646,0.04498 -0.03969,0.06615 -0.07408,0.113771 -0.148167,0.224896 -0.224896,0.336021 -0.01323,0.01852 -0.02646,0.0344 -0.03704,0.05027 -0.06615,0.08996 -0.129646,0.179917 -0.198437,0.26723 -0.02646,0.03175 -0.05292,0.0635 -0.07673,0.09525 -0.05556,0.06879 -0.113771,0.140229 -0.169334,0.206374 -0.03175,0.03704 -0.0635,0.07144 -0.09525,0.105834 -0.05292,0.06085 -0.108479,0.121708 -0.164041,0.179916 -0.0344,0.03704 -0.07144,0.07144 -0.105834,0.10848 -0.05556,0.05556 -0.108479,0.111125 -0.164041,0.164041 -0.03704,0.0344 -0.07673,0.06879 -0.113771,0.105834 -0.05556,0.05027 -0.111125,0.100541 -0.169334,0.150812 -0.03969,0.0344 -0.08202,0.06615 -0.121708,0.100542 -0.05556,0.04763 -0.113771,0.0926 -0.171979,0.137583 -0.04233,0.03175 -0.08467,0.0635 -0.127,0.09525 -0.05821,0.04498 -0.119063,0.08731 -0.177271,0.129646 -0.04498,0.03175 -0.08996,0.06085 -0.134937,0.08996 -0.06085,0.03969 -0.121709,0.07937 -0.182563,0.119063 -0.04498,0.0291 -0.0926,0.05556 -0.140229,0.08467 -0.0635,0.03704 -0.127,0.07408 -0.1905,0.10848 -0.04762,0.02646 -0.0979,0.05292 -0.145521,0.07673 -0.0635,0.0344 -0.129646,0.06615 -0.195792,0.0979 -0.05027,0.02381 -0.100541,0.04762 -0.150812,0.07144 -0.06615,0.03175 -0.134937,0.06085 -0.201083,0.08996 -0.05292,0.02117 -0.103188,0.04498 -0.156104,0.06615 -0.06879,0.02646 -0.137584,0.05292 -0.209021,0.07937 -0.05292,0.02117 -0.105834,0.03969 -0.161396,0.05821 -0.07144,0.02381 -0.142875,0.04762 -0.214313,0.07144 -0.05556,0.01852 -0.111125,0.0344 -0.166687,0.05292 -0.07144,0.02117 -0.145521,0.04233 -0.219604,0.06085 -0.05821,0.01588 -0.116417,0.03175 -0.174625,0.04498 -0.07408,0.01852 -0.148167,0.0344 -0.22225,0.05027 -0.06085,0.01323 -0.121709,0.02646 -0.182563,0.03969 -0.01323,0.0026 -0.02646,0.0053 -0.03704,0.0079 -0.280459,-0.801688 -0.423334,-1.643063 -0.423334,-2.505604 0,-4.180417 3.384021,-7.582958 7.5565,-7.614708 0,0.02646 -0.0053,0.05292 -0.0053,0.07673 -0.0053,0.07673 -0.01323,0.150812 -0.02117,0.224896 z m -11.654896,9.805459 c -0.05821,-0.01058 -0.11377,-0.02646 -0.169333,-0.03704 -0.07673,-0.01852 -0.156104,-0.0344 -0.230187,-0.05292 -0.05556,-0.01323 -0.113771,-0.0291 -0.169334,-0.04498 -0.07408,-0.02117 -0.148166,-0.03969 -0.22225,-0.0635 -0.05556,-0.01588 -0.111126,-0.0344 -0.166688,-0.05292 -0.07144,-0.02381 -0.142875,-0.04498 -0.214313,-0.07144 -0.05292,-0.01852 -0.108479,-0.03969 -0.161396,-0.05821 -0.06879,-0.02646 -0.1375826,-0.05292 -0.2063746,-0.07937 -0.05292,-0.02117 -0.103187,-0.04233 -0.156104,-0.06615 -0.06615,-0.0291 -0.134937,-0.05821 -0.201083,-0.08996 -0.05027,-0.02381 -0.100542,-0.04763 -0.150813,-0.07144 -0.06615,-0.03175 -0.129645,-0.06615 -0.195791,-0.100542 -0.04763,-0.02646 -0.0979,-0.05027 -0.142875,-0.07673 -0.0635,-0.0344 -0.127,-0.07144 -0.1905,-0.108479 -0.04498,-0.02646 -0.0926,-0.05556 -0.137584,-0.08202 -0.0635,-0.03969 -0.124354,-0.07937 -0.185208,-0.119062 -0.04498,-0.02911 -0.08731,-0.05821 -0.129646,-0.08996 -0.06085,-0.04233 -0.121708,-0.08731 -0.179916,-0.129646 -0.04233,-0.03175 -0.08202,-0.06085 -0.124355,-0.0926 -0.06085,-0.04762 -0.119062,-0.09525 -0.17727,-0.142875 -0.03704,-0.03175 -0.07673,-0.0635 -0.113771,-0.09525 -0.05821,-0.05292 -0.119063,-0.105833 -0.177271,-0.15875 -0.0344,-0.03175 -0.07144,-0.0635 -0.105833,-0.0979 -0.06085,-0.05821 -0.119063,-0.116416 -0.177271,-0.17727 -0.03175,-0.03175 -0.06085,-0.06085 -0.0926,-0.09525 -0.06085,-0.06615 -0.121709,-0.132292 -0.182563,-0.201084 -0.02646,-0.0291 -0.05027,-0.05556 -0.07673,-0.08467 -0.06879,-0.07937 -0.132292,-0.15875 -0.198438,-0.240771 -0.01588,-0.02117 -0.03175,-0.03969 -0.04763,-0.05821 -0.243416,-0.312209 -0.468312,-0.650875 -0.677333,-1.010709 -0.01323,-0.02117 -0.02381,-0.04498 -0.03704,-0.06615 -0.05556,-0.0979 -0.108479,-0.195791 -0.164041,-0.298979 -0.01852,-0.0344 -0.0344,-0.07144 -0.05292,-0.105833 -0.04498,-0.08996 -0.08996,-0.179917 -0.134937,-0.272521 -0.01852,-0.04233 -0.03969,-0.08731 -0.05821,-0.129646 -0.03969,-0.08731 -0.07938,-0.177271 -0.119062,-0.267229 -0.02117,-0.04763 -0.03969,-0.0979 -0.05821,-0.145521 -0.03439,-0.08731 -0.07144,-0.174625 -0.105833,-0.264583 -0.01852,-0.05292 -0.03969,-0.105833 -0.05821,-0.15875 -0.03175,-0.08731 -0.0635,-0.177271 -0.09525,-0.267229 -0.01852,-0.05556 -0.03704,-0.113771 -0.05556,-0.171979 -0.0291,-0.08996 -0.05821,-0.179917 -0.08467,-0.269875 -0.01852,-0.06086 -0.0344,-0.121709 -0.05292,-0.182563 -0.02646,-0.08996 -0.05292,-0.182562 -0.07673,-0.275167 -0.01588,-0.0635 -0.03175,-0.127 -0.05027,-0.1905 -0.02381,-0.0926 -0.04498,-0.187854 -0.06879,-0.283104 -0.01588,-0.06615 -0.03175,-0.132291 -0.04498,-0.198437 -0.02117,-0.09525 -0.03969,-0.1905 -0.06085,-0.288396 -0.01323,-0.06879 -0.0291,-0.140229 -0.04233,-0.209021 -0.01852,-0.0979 -0.0344,-0.195792 -0.05292,-0.293687 -0.01323,-0.07144 -0.02381,-0.145521 -0.03704,-0.219605 -0.01588,-0.100541 -0.03175,-0.198437 -0.04498,-0.298979 -0.01058,-0.07673 -0.02117,-0.150812 -0.03175,-0.227541 -0.01323,-0.100542 -0.02646,-0.20373 -0.03704,-0.306917 -0.01058,-0.07673 -0.01852,-0.156104 -0.02646,-0.235479 -0.01058,-0.103188 -0.02117,-0.209021 -0.03175,-0.314854 -0.0079,-0.08202 -0.01588,-0.161396 -0.02381,-0.243417 0,-0.02381 -0.0026,-0.04498 -0.0053,-0.06879 4.15925,0.04762 7.5247506,3.444875 7.5247506,7.614708 0,0.85725 -0.140229,1.698625 -0.420688,2.500313 -0.01323,0 -0.02646,-0.0053 -0.03969,-0.0079 z M 8.1757664,3.597213 C 9.9378914,3.8909 11.443372,4.951879 12.337663,6.420317 11.424851,5.602754 10.223641,5.100046 8.9033714,5.100046 c -1.000125,0 -1.931459,0.291042 -2.722563,0.785812 0.566208,-0.883708 1.235604,-1.653645 1.994958,-2.288645 z M 21.124476,5.917608 C 20.322788,5.404317 19.372934,5.102692 18.351642,5.102692 c -1.283229,0 -2.457979,0.47625 -3.362854,1.256771 0.899584,-1.436688 2.383896,-2.468563 4.119563,-2.759605 0.767291,0.642938 1.444625,1.423459 2.013479,2.320396 z m 1.981729,7.273396 c 0,0.468313 -0.01058,0.923396 -0.03175,1.357313 -0.936625,0 -1.836209,0.156104 -2.680229,0.436562 1.198562,-0.518583 2.161645,-1.481667 2.682875,-2.680229 0.01587,0.291042 0.02646,0.587375 0.02646,0.886354 z M 8.9060164,5.962588 c 2.3680216,0 4.2941886,1.926166 4.2941886,4.294187 0,2.368021 -1.926167,4.294187 -4.2941886,4.294187 -2.36802,0 -4.294187,-1.926166 -4.294187,-4.294187 0,-2.368021 1.926167,-4.294187 4.294187,-4.294187 z m 4.7254596,6.347354 c 0.280458,0.645583 0.693208,1.219729 1.198562,1.693333 l -1.262062,1.262062 -1.201209,-1.201208 c 0.537105,-0.486833 0.971021,-1.082146 1.267355,-1.756833 z m 0.428625,-2.055813 c 0,-2.368021 1.926166,-4.294187 4.294187,-4.294187 2.368021,0 4.294188,1.926166 4.294188,4.294187 0,2.368021 -1.926167,4.294188 -4.294188,4.294188 -2.368021,0 -4.294187,-1.926167 -4.294187,-4.294188 z m -9.8768966,2.934229 c 0,-0.280458 0.01058,-0.555625 0.02381,-0.830791 0.52652,1.172104 1.476374,2.11402 2.656416,2.624666 -0.833437,-0.277812 -1.725083,-0.433916 -2.648479,-0.436562 -0.02117,-0.433917 -0.03175,-0.889 -0.03175,-1.357313 z m 3.212042,1.992313 c 0.47625,0.145521 0.98425,0.227541 1.51077,0.227541 1.021292,0 1.9685006,-0.301625 2.7701886,-0.814916 l 1.889125,1.889125 1.93675,-1.939396 c 0.817562,0.545042 1.796521,0.862542 2.849562,0.862542 0.526521,0 1.031875,-0.07938 1.510771,-0.227542 -2.428875,0.997479 -4.294187,3.092979 -4.976812,5.664729 -0.396875,0.03969 -0.806979,0.06085 -1.240896,0.06085 -0.433917,0 -0.865188,-0.02646 -1.272646,-0.06879 C 11.686788,18.268355 9.8214754,16.178147 7.3978914,15.180668 Z M 23.196163,8.251233 c -0.508,-1.529291 -1.259417,-2.902479 -2.230437,-4.048125 -0.20373,-0.24077 -0.415396,-0.465666 -0.635,-0.682625 1.164166,0.04233 2.278062,0.410105 3.230562,1.076855 L 24.053413,3.8909 C 22.891892,3.078629 21.529288,2.650004 20.10583,2.650004 c -0.04233,0 -0.08731,0 -0.129646,0.0026 1.235604,-0.129646 2.891896,-0.396875 4.553479,-0.9525 0.224896,0.878417 0.534458,3.254375 -1.336146,6.551083 z M 17.941538,2.763775 v 0.01058 h 0.01588 c 0.07937,0.04763 0.161396,0.09525 0.240771,0.145521 -2.103437,0.608542 -3.799417,2.19075 -4.556125,4.228042 C 12.885356,5.110626 11.189377,3.525772 9.0859384,2.919876 10.422084,2.05998 11.969897,1.575793 13.642064,1.575793 c 1.568979,0 3.024188,0.423333 4.299479,1.185333 z M 2.5930584,1.70015 c 1.653646,0.552979 3.302,0.822854 4.537604,0.9525 -1.404937,0.0079 -2.754312,0.436563 -3.902604,1.23825 l 0.492125,0.706438 c 0.955146,-0.66675 2.069042,-1.034521 3.230563,-1.076855 -0.219605,0.216959 -0.431271,0.441855 -0.635,0.682625 -1.008063,1.190625 -1.778,2.627313 -2.286,4.228042 C 2.0453713,5.039192 2.3628714,2.594442 2.5904124,1.702796 Z M 12.23183,25.655525 c 0.277812,-0.849313 0.420687,-1.733021 0.420687,-2.63525 0,-0.4445 -0.0344,-0.878417 -0.100541,-1.304396 0.354541,0.0291 0.714375,0.04763 1.087437,0.04763 0.373063,0 0.714375,-0.01588 1.055688,-0.04233 -0.06615,0.423333 -0.100542,0.85725 -0.100542,1.296458 0,0.904875 0.142875,1.791229 0.423333,2.640542 -0.441854,0.05027 -0.902229,0.07673 -1.378479,0.07673 -0.47625,0 -0.957791,-0.02646 -1.407583,-0.07937 z"
       style="stroke-width:0px"
       id="path52" />
    <path
       d="m 23.831163,11.084921 v 0 c 0,0 0,0 0,0 C 23.757083,10.502837 23.653892,9.936629 23.518955,9.38365 26.691309,4.390963 25.257267,1.115421 25.193767,0.975192 L 25.02708,0.615358 24.654017,0.752942 C 21.94733,1.742483 19.063371,1.893296 18.203476,1.917108 16.817059,1.139233 15.266601,0.726483 13.642059,0.726483 12.017517,0.726483 10.459121,1.141879 9.0700584,1.9224 8.4641624,1.91182 5.3685374,1.813921 2.4687044,0.752942 L 2.0956424,0.615358 1.9289543,0.975192 c -0.0635,0.142875 -1.53193699,3.495146 1.7938751,8.591021 -0.264583,1.150937 -0.404812,2.36802 -0.404812,3.627437 0,0.478896 0.01058,0.944562 0.03175,1.389062 v 0 l 0.02646,0.433917 c 0.02646,0.415396 0.06085,0.822854 0.108479,1.217083 0.04498,0.39423 0.100542,0.780521 0.164042,1.153584 0.0635,0.373062 0.137583,0.735541 0.219604,1.087437 0.986896,4.22275 3.302,6.873875 6.8103756,7.776104 0.293687,0.07673 0.592666,0.137584 0.902229,0.1905 l 0.341312,0.05556 v -0.0079 c 0.550334,0.07408 1.127125,0.113771 1.719792,0.113771 0.592667,0 1.153583,-0.03704 1.690688,-0.108479 v 0.0053 c 0,0 0.341312,-0.05556 0.341312,-0.05556 0.775229,-0.124354 1.497542,-0.328083 2.169583,-0.605896 3.622146,-1.497541 5.704417,-5.191125 6.06425,-10.818812 0,0 0,-0.0053 0,-0.0079 l 0.02646,-0.428625 h -0.0026 c 0.02117,-0.4445 0.03175,-0.910166 0.03175,-1.389062 0,-0.717021 -0.04762,-1.420813 -0.134938,-2.106083 z m -0.841375,4.624916 c -0.01058,0.111125 -0.02117,0.22225 -0.03175,0.33073 -0.0079,0.07673 -0.01852,0.150812 -0.02646,0.227541 -0.01323,0.105834 -0.02646,0.209021 -0.03969,0.312209 -0.01058,0.07673 -0.02117,0.153458 -0.03175,0.227541 -0.01323,0.100542 -0.0291,0.198438 -0.04498,0.296334 -0.01323,0.07673 -0.02381,0.150812 -0.03704,0.224895 -0.01588,0.09525 -0.03175,0.1905 -0.05027,0.283105 -0.01323,0.07408 -0.02911,0.148166 -0.04233,0.22225 -0.01852,0.0926 -0.03704,0.182562 -0.05821,0.27252 -0.01587,0.07408 -0.03175,0.145521 -0.05027,0.216959 -0.02117,0.08731 -0.04233,0.174625 -0.0635,0.261937 -0.01852,0.07144 -0.03704,0.142875 -0.05556,0.211667 -0.02381,0.08467 -0.04498,0.169333 -0.07144,0.254 -0.01852,0.06879 -0.03969,0.137583 -0.06085,0.206375 -0.02381,0.08202 -0.05027,0.164042 -0.07673,0.243417 -0.02117,0.06614 -0.04233,0.132291 -0.0635,0.198437 -0.02646,0.07937 -0.05556,0.15875 -0.08467,0.238125 -0.02381,0.0635 -0.04498,0.127 -0.06879,0.187854 -0.0291,0.07937 -0.06085,0.156104 -0.0926,0.232834 -0.02381,0.05821 -0.04762,0.119062 -0.07144,0.17727 -0.03175,0.07673 -0.06615,0.153459 -0.100542,0.230188 -0.02381,0.05556 -0.05027,0.111125 -0.07673,0.166687 -0.03704,0.07673 -0.07408,0.153459 -0.113771,0.227542 -0.02646,0.05027 -0.05027,0.100542 -0.07673,0.150813 -0.04233,0.08202 -0.08731,0.15875 -0.129646,0.238125 -0.02381,0.04233 -0.04498,0.08467 -0.06879,0.124354 -0.05556,0.0979 -0.11377,0.1905 -0.171979,0.283104 -0.01323,0.02117 -0.02646,0.04498 -0.03969,0.06615 -0.07408,0.113771 -0.148167,0.224896 -0.224896,0.336021 -0.01323,0.01852 -0.02646,0.0344 -0.03704,0.05027 -0.06615,0.08996 -0.129646,0.179917 -0.198437,0.26723 -0.02646,0.03175 -0.05292,0.0635 -0.07673,0.09525 -0.05556,0.06879 -0.113771,0.140229 -0.169334,0.206374 -0.03175,0.03704 -0.0635,0.07144 -0.09525,0.105834 -0.05292,0.06085 -0.108479,0.121708 -0.164041,0.179916 -0.0344,0.03704 -0.07144,0.07144 -0.105834,0.10848 -0.05556,0.05556 -0.108479,0.111125 -0.164041,0.164041 -0.03704,0.0344 -0.07673,0.06879 -0.113771,0.105834 -0.05556,0.05027 -0.111125,0.100541 -0.169334,0.150812 -0.03969,0.0344 -0.08202,0.06615 -0.121708,0.100542 -0.05556,0.04763 -0.113771,0.0926 -0.171979,0.137583 -0.04233,0.03175 -0.08467,0.0635 -0.127,0.09525 -0.05821,0.04498 -0.119063,0.08731 -0.177271,0.129646 -0.04498,0.03175 -0.08996,0.06085 -0.134937,0.08996 -0.06085,0.03969 -0.121709,0.07937 -0.182563,0.119063 -0.04498,0.0291 -0.0926,0.05556 -0.140229,0.08467 -0.0635,0.03704 -0.127,0.07408 -0.1905,0.10848 -0.04762,0.02646 -0.0979,0.05292 -0.145521,0.07673 -0.0635,0.0344 -0.129646,0.06615 -0.195792,0.0979 -0.05027,0.02381 -0.100541,0.04762 -0.150812,0.07144 -0.06615,0.03175 -0.134937,0.06085 -0.201083,0.08996 -0.05292,0.02117 -0.103188,0.04498 -0.156104,0.06615 -0.06879,0.02646 -0.137584,0.05292 -0.209021,0.07937 -0.05292,0.02117 -0.105834,0.03969 -0.161396,0.05821 -0.07144,0.02381 -0.142875,0.04762 -0.214313,0.07144 -0.05556,0.01852 -0.111125,0.0344 -0.166687,0.05292 -0.07144,0.02117 -0.145521,0.04233 -0.219604,0.06085 -0.05821,0.01588 -0.116417,0.03175 -0.174625,0.04498 -0.07408,0.01852 -0.148167,0.0344 -0.22225,0.05027 -0.06085,0.01323 -0.121709,0.02646 -0.182563,0.03969 -0.01323,0.0026 -0.02646,0.0053 -0.03704,0.0079 -0.280459,-0.801688 -0.423334,-1.643063 -0.423334,-2.505604 0,-4.180417 3.384021,-7.582958 7.5565,-7.614708 0,0.02646 -0.0053,0.05292 -0.0053,0.07673 -0.0053,0.07673 -0.01323,0.150812 -0.02117,0.224896 z m -11.654896,9.805459 c -0.05821,-0.01058 -0.11377,-0.02646 -0.169333,-0.03704 -0.07673,-0.01852 -0.156104,-0.0344 -0.230187,-0.05292 -0.05556,-0.01323 -0.113771,-0.0291 -0.169334,-0.04498 -0.07408,-0.02117 -0.148166,-0.03969 -0.22225,-0.0635 -0.05556,-0.01588 -0.111126,-0.0344 -0.166688,-0.05292 -0.07144,-0.02381 -0.142875,-0.04498 -0.214313,-0.07144 -0.05292,-0.01852 -0.108479,-0.03969 -0.161396,-0.05821 -0.06879,-0.02646 -0.1375826,-0.05292 -0.2063746,-0.07937 -0.05292,-0.02117 -0.103187,-0.04233 -0.156104,-0.06615 -0.06615,-0.0291 -0.134937,-0.05821 -0.201083,-0.08996 -0.05027,-0.02381 -0.100542,-0.04763 -0.150813,-0.07144 -0.06615,-0.03175 -0.129645,-0.06615 -0.195791,-0.100542 -0.04763,-0.02646 -0.0979,-0.05027 -0.142875,-0.07673 -0.0635,-0.0344 -0.127,-0.07144 -0.1905,-0.108479 -0.04498,-0.02646 -0.0926,-0.05556 -0.137584,-0.08202 -0.0635,-0.03969 -0.124354,-0.07937 -0.185208,-0.119062 -0.04498,-0.02911 -0.08731,-0.05821 -0.129646,-0.08996 -0.06085,-0.04233 -0.121708,-0.08731 -0.179916,-0.129646 -0.04233,-0.03175 -0.08202,-0.06085 -0.124355,-0.0926 -0.06085,-0.04762 -0.119062,-0.09525 -0.17727,-0.142875 -0.03704,-0.03175 -0.07673,-0.0635 -0.113771,-0.09525 -0.05821,-0.05292 -0.119063,-0.105833 -0.177271,-0.15875 -0.0344,-0.03175 -0.07144,-0.0635 -0.105833,-0.0979 -0.06085,-0.05821 -0.119063,-0.116416 -0.177271,-0.17727 -0.03175,-0.03175 -0.06085,-0.06085 -0.0926,-0.09525 -0.06085,-0.06615 -0.121709,-0.132292 -0.182563,-0.201084 -0.02646,-0.0291 -0.05027,-0.05556 -0.07673,-0.08467 -0.06879,-0.07937 -0.132292,-0.15875 -0.198438,-0.240771 -0.01588,-0.02117 -0.03175,-0.03969 -0.04763,-0.05821 -0.243416,-0.312209 -0.468312,-0.650875 -0.677333,-1.010709 -0.01323,-0.02117 -0.02381,-0.04498 -0.03704,-0.06615 -0.05556,-0.0979 -0.108479,-0.195791 -0.164041,-0.298979 -0.01852,-0.0344 -0.0344,-0.07144 -0.05292,-0.105833 -0.04498,-0.08996 -0.08996,-0.179917 -0.134937,-0.272521 -0.01852,-0.04233 -0.03969,-0.08731 -0.05821,-0.129646 -0.03969,-0.08731 -0.07938,-0.177271 -0.119062,-0.267229 -0.02117,-0.04763 -0.03969,-0.0979 -0.05821,-0.145521 -0.03439,-0.08731 -0.07144,-0.174625 -0.105833,-0.264583 -0.01852,-0.05292 -0.03969,-0.105833 -0.05821,-0.15875 -0.03175,-0.08731 -0.0635,-0.177271 -0.09525,-0.267229 -0.01852,-0.05556 -0.03704,-0.113771 -0.05556,-0.171979 -0.0291,-0.08996 -0.05821,-0.179917 -0.08467,-0.269875 -0.01852,-0.06086 -0.0344,-0.121709 -0.05292,-0.182563 -0.02646,-0.08996 -0.05292,-0.182562 -0.07673,-0.275167 -0.01588,-0.0635 -0.03175,-0.127 -0.05027,-0.1905 -0.02381,-0.0926 -0.04498,-0.187854 -0.06879,-0.283104 -0.01588,-0.06615 -0.03175,-0.132291 -0.04498,-0.198437 -0.02117,-0.09525 -0.03969,-0.1905 -0.06085,-0.288396 -0.01323,-0.06879 -0.0291,-0.140229 -0.04233,-0.209021 -0.01852,-0.0979 -0.0344,-0.195792 -0.05292,-0.293687 -0.01323,-0.07144 -0.02381,-0.145521 -0.03704,-0.219605 -0.01588,-0.100541 -0.03175,-0.198437 -0.04498,-0.298979 -0.01058,-0.07673 -0.02117,-0.150812 -0.03175,-0.227541 -0.01323,-0.100542 -0.02646,-0.20373 -0.03704,-0.306917 -0.01058,-0.07673 -0.01852,-0.156104 -0.02646,-0.235479 -0.01058,-0.103188 -0.02117,-0.209021 -0.03175,-0.314854 -0.0079,-0.08202 -0.01588,-0.161396 -0.02381,-0.243417 0,-0.02381 -0.0026,-0.04498 -0.0053,-0.06879 4.15925,0.04762 7.5247506,3.444875 7.5247506,7.614708 0,0.85725 -0.140229,1.698625 -0.420688,2.500313 -0.01323,0 -0.02646,-0.0053 -0.03969,-0.0079 z M 8.1757664,3.597213 C 9.9378914,3.8909 11.443372,4.951879 12.337663,6.420317 11.424851,5.602754 10.223641,5.100046 8.9033714,5.100046 c -1.000125,0 -1.931459,0.291042 -2.722563,0.785812 0.566208,-0.883708 1.235604,-1.653645 1.994958,-2.288645 z M 21.124476,5.917608 C 20.322788,5.404317 19.372934,5.102692 18.351642,5.102692 c -1.283229,0 -2.457979,0.47625 -3.362854,1.256771 0.899584,-1.436688 2.383896,-2.468563 4.119563,-2.759605 0.767291,0.642938 1.444625,1.423459 2.013479,2.320396 z m 1.981729,7.273396 c 0,0.468313 -0.01058,0.923396 -0.03175,1.357313 -0.936625,0 -1.836209,0.156104 -2.680229,0.436562 1.198562,-0.518583 2.161645,-1.481667 2.682875,-2.680229 0.01587,0.291042 0.02646,0.587375 0.02646,0.886354 z M 8.9060164,5.962588 c 2.3680216,0 4.2941886,1.926166 4.2941886,4.294187 0,2.368021 -1.926167,4.294187 -4.2941886,4.294187 -2.36802,0 -4.294187,-1.926166 -4.294187,-4.294187 0,-2.368021 1.926167,-4.294187 4.294187,-4.294187 z m 4.7254596,6.347354 c 0.280458,0.645583 0.693208,1.219729 1.198562,1.693333 l -1.262062,1.262062 -1.201209,-1.201208 c 0.537105,-0.486833 0.971021,-1.082146 1.267355,-1.756833 z m 0.428625,-2.055813 c 0,-2.368021 1.926166,-4.294187 4.294187,-4.294187 2.368021,0 4.294188,1.926166 4.294188,4.294187 0,2.368021 -1.926167,4.294188 -4.294188,4.294188 -2.368021,0 -4.294187,-1.926167 -4.294187,-4.294188 z m -9.8768966,2.934229 c 0,-0.280458 0.01058,-0.555625 0.02381,-0.830791 0.52652,1.172104 1.476374,2.11402 2.656416,2.624666 -0.833437,-0.277812 -1.725083,-0.433916 -2.648479,-0.436562 -0.02117,-0.433917 -0.03175,-0.889 -0.03175,-1.357313 z m 3.212042,1.992313 c 0.47625,0.145521 0.98425,0.227541 1.51077,0.227541 1.021292,0 1.9685006,-0.301625 2.7701886,-0.814916 l 1.889125,1.889125 1.93675,-1.939396 c 0.817562,0.545042 1.796521,0.862542 2.849562,0.862542 0.526521,0 1.031875,-0.07938 1.510771,-0.227542 -2.428875,0.997479 -4.294187,3.092979 -4.976812,5.664729 -0.396875,0.03969 -0.806979,0.06085 -1.240896,0.06085 -0.433917,0 -0.865188,-0.02646 -1.272646,-0.06879 C 11.686788,18.268355 9.8214754,16.178147 7.3978914,15.180668 Z M 23.196163,8.251233 c -0.508,-1.529291 -1.259417,-2.902479 -2.230437,-4.048125 -0.20373,-0.24077 -0.415396,-0.465666 -0.635,-0.682625 1.164166,0.04233 2.278062,0.410105 3.230562,1.076855 L 24.053413,3.8909 C 22.891892,3.078629 21.529288,2.650004 20.10583,2.650004 c -0.04233,0 -0.08731,0 -0.129646,0.0026 1.235604,-0.129646 2.891896,-0.396875 4.553479,-0.9525 0.224896,0.878417 0.534458,3.254375 -1.336146,6.551083 z M 17.941538,2.763775 v 0.01058 h 0.01588 c 0.07937,0.04763 0.161396,0.09525 0.240771,0.145521 -2.103437,0.608542 -3.799417,2.19075 -4.556125,4.228042 C 12.885356,5.110626 11.189377,3.525772 9.0859384,2.919876 10.422084,2.05998 11.969897,1.575793 13.642064,1.575793 c 1.568979,0 3.024188,0.423333 4.299479,1.185333 z M 2.5930584,1.70015 c 1.653646,0.552979 3.302,0.822854 4.537604,0.9525 -1.404937,0.0079 -2.754312,0.436563 -3.902604,1.23825 l 0.492125,0.706438 c 0.955146,-0.66675 2.069042,-1.034521 3.230563,-1.076855 -0.219605,0.216959 -0.431271,0.441855 -0.635,0.682625 -1.008063,1.190625 -1.778,2.627313 -2.286,4.228042 C 2.0453713,5.039192 2.3628714,2.594442 2.5904124,1.702796 Z M 12.23183,25.655525 c 0.277812,-0.849313 0.420687,-1.733021 0.420687,-2.63525 0,-0.4445 -0.0344,-0.878417 -0.100541,-1.304396 0.354541,0.0291 0.714375,0.04763 1.087437,0.04763 0.373063,0 0.714375,-0.01588 1.055688,-0.04233 -0.06615,0.423333 -0.100542,0.85725 -0.100542,1.296458 0,0.904875 0.142875,1.791229 0.423333,2.640542 -0.441854,0.05027 -0.902229,0.07673 -1.378479,0.07673 -0.47625,0 -0.957791,-0.02646 -1.407583,-0.07937 z"
       style="stroke-width:0px"
       id="path53" />
    <path
       d="m 22.087559,10.254129 c 0,-2.061104 -1.677458,-3.735916 -3.735917,-3.735916 -2.058458,0 -3.735916,1.677458 -3.735916,3.735916 0,2.058458 1.674812,3.735917 3.735916,3.735917 2.061104,0 3.735917,-1.674813 3.735917,-3.735917 z m -6.611937,0 c 0,-1.584854 1.291166,-2.876021 2.87602,-2.876021 1.584854,0 2.876021,1.291167 2.876021,2.876021 0,1.584854 -1.291167,2.876021 -2.876021,2.876021 -1.584854,0 -2.87602,-1.291167 -2.87602,-2.876021 z"
       style="stroke-width:0px"
       id="path54" />
    <path
       d="m 8.9033714,13.992692 c 2.0611046,0 3.7359166,-1.674813 3.7359166,-3.735917 0,-2.061104 -1.674812,-3.735917 -3.7359166,-3.735917 -2.061105,0 -3.735917,1.677459 -3.735917,3.735917 0,2.058458 1.677458,3.735917 3.735917,3.735917 z m 0,-6.611938 c 1.5848536,0 2.8760206,1.291167 2.8760206,2.876021 0,1.584854 -1.291167,2.876021 -2.8760206,2.876021 -1.584855,0 -2.876021,-1.291167 -2.876021,-2.876021 0,-1.584854 1.288521,-2.876021 2.876021,-2.876021 z"
       style="stroke-width:0px"
       id="path55" />
    <path
       d="m 8.9033714,13.992692 c 2.0611046,0 3.7359166,-1.674813 3.7359166,-3.735917 0,-2.061104 -1.674812,-3.735917 -3.7359166,-3.735917 -2.061105,0 -3.735917,1.677459 -3.735917,3.735917 0,2.058458 1.677458,3.735917 3.735917,3.735917 z m 0,-6.611938 c 1.5848536,0 2.8760206,1.291167 2.8760206,2.876021 0,1.584854 -1.291167,2.876021 -2.8760206,2.876021 -1.584855,0 -2.876021,-1.291167 -2.876021,-2.876021 0,-1.584854 1.288521,-2.876021 2.876021,-2.876021 z"
       style="stroke-width:0px"
       id="path56" />
    <path
       d="m 8.9033714,13.992692 c 2.0611046,0 3.7359166,-1.674813 3.7359166,-3.735917 0,-2.061104 -1.674812,-3.735917 -3.7359166,-3.735917 -2.061105,0 -3.735917,1.677459 -3.735917,3.735917 0,2.058458 1.677458,3.735917 3.735917,3.735917 z m 0,-6.611938 c 1.5848536,0 2.8760206,1.291167 2.8760206,2.876021 0,1.584854 -1.291167,2.876021 -2.8760206,2.876021 -1.584855,0 -2.876021,-1.291167 -2.876021,-2.876021 0,-1.584854 1.288521,-2.876021 2.876021,-2.876021 z"
       style="stroke-width:0px"
       id="path57" />
    <path
       d="M 19.777746,10.254129 H 18.351642 V 8.828025 c -0.788458,0 -1.426104,0.637646 -1.426104,1.426104 0,0.788458 0.637646,1.426104 1.426104,1.426104 0.788459,0 1.426104,-0.637646 1.426104,-1.426104 z"
       style="stroke-width:0px"
       id="path58" />
    <path
       d="M 19.777746,10.254129 H 18.351642 V 8.828025 c -0.788458,0 -1.426104,0.637646 -1.426104,1.426104 0,0.788458 0.637646,1.426104 1.426104,1.426104 0.788459,0 1.426104,-0.637646 1.426104,-1.426104 z"
       style="stroke-width:0px"
       id="path59" />
    <path
       d="M 19.777746,10.254129 H 18.351642 V 8.828025 c -0.788458,0 -1.426104,0.637646 -1.426104,1.426104 0,0.788458 0.637646,1.426104 1.426104,1.426104 0.788459,0 1.426104,-0.637646 1.426104,-1.426104 z"
       style="stroke-width:0px"
       id="path60" />
    <path
       d="m 8.9033714,11.680233 c 0.788458,0 1.4261036,-0.637646 1.4261036,-1.426104 H 8.9033714 V 8.828025 c -0.788459,0 -1.426105,0.637646 -1.426105,1.426104 0,0.788458 0.637646,1.426104 1.426105,1.426104 z"
       style="stroke-width:0px"
       id="path61" />
    <path
       d="m 8.9033714,11.680233 c 0.788458,0 1.4261036,-0.637646 1.4261036,-1.426104 H 8.9033714 V 8.828025 c -0.788459,0 -1.426105,0.637646 -1.426105,1.426104 0,0.788458 0.637646,1.426104 1.426105,1.426104 z"
       style="stroke-width:0px"
       id="path62" />
    <path
       d="m 8.9033714,11.680233 c 0.788458,0 1.4261036,-0.637646 1.4261036,-1.426104 H 8.9033714 V 8.828025 c -0.788459,0 -1.426105,0.637646 -1.426105,1.426104 0,0.788458 0.637646,1.426104 1.426105,1.426104 z"
       style="stroke-width:0px"
       id="path63" />
  </g>
</svg>
