<svg xmlns="http://www.w3.org/2000/svg" version="1.1" xmlns:xlink="http://www.w3.org/1999/xlink" xmlns:svgjs="http://svgjs.dev/svgjs" width="1080" height="1080"><svg version="1.1" width="1080" height="1080" viewBox="0 0 1080 1080" xml:space="preserve" id="SvgjsSvg1111" sodipodi:docname="newfavi (copy 1).svg" inkscape:version="1.4 (e7c3feb100, 2024-10-09)" xmlns:inkscape="http://www.inkscape.org/namespaces/inkscape" xmlns:sodipodi="http://sodipodi.sourceforge.net/DTD/sodipodi-0.dtd" xmlns="http://www.w3.org/2000/svg" xmlns:svg="http://www.w3.org/2000/svg"><sodipodi:namedview id="SvgjsSodipodi:namedview1110" pagecolor="#ffffff" bordercolor="#000000" borderopacity="0.25" inkscape:showpageshadow="2" inkscape:pageopacity="0.0" inkscape:pagecheckerboard="0" inkscape:deskcolor="#d1d1d1" inkscape:zoom="0.40324074" inkscape:cx="311.22847" inkscape:cy="534.42021" inkscape:window-width="1239" inkscape:window-height="1080" inkscape:window-x="1110" inkscape:window-y="356" inkscape:window-maximized="1" inkscape:current-layer="1ce3428d-0bfb-43fd-b284-12a8144d9fcf"></sodipodi:namedview>
<desc id="SvgjsDesc1109">Created with Fabric.js 5.2.4</desc>
<defs id="SvgjsDefs1108">
</defs>
<g transform="matrix(1 0 0 1 540 540)" id="SvgjsG1107">
<rect style="stroke: none; stroke-width: 1; stroke-dasharray: none; stroke-linecap: butt; stroke-dashoffset: 0; stroke-linejoin: miter; stroke-miterlimit: 4; fill: rgb(255,255,255); fill-rule: nonzero; opacity: 1; visibility: hidden;" vector-effect="non-scaling-stroke" x="-540" y="-540" rx="0" ry="0" width="1080" height="1080" id="SvgjsRect1106"></rect>
</g>
<g transform="matrix(1 0 0 1 540 540)" id="SvgjsG1105">
</g>


<g transform="matrix(0 0 0 0 0 0)" id="SvgjsG1104">
<g style="" id="SvgjsG1103">
</g>
</g>
<g transform="matrix(0 0 0 0 0 0)" id="SvgjsG1102">
<g style="" id="SvgjsG1101">
</g>
</g>
<g transform="matrix(0 0 0 0 0 0)" id="SvgjsG1100">
<g style="" id="SvgjsG1099">
</g>
</g>
<g transform="matrix(0 0 0 0 0 0)" id="SvgjsG1098">
<g style="" id="SvgjsG1097">
</g>
</g><g transform="matrix(15.02,0,0,15.02,543.92,543.92)" id="SvgjsG1096">
<circle style="stroke:rgb(0, 0, 0);stroke-width:0;stroke-dasharray:none;stroke-linecap:butt;stroke-dashoffset:0;stroke-linejoin:miter;stroke-miterlimit:4;fill:#cccccc;fill-rule:nonzero;opacity:1" vector-effect="non-scaling-stroke" cx="0" cy="0" r="35" id="SvgjsCircle1095"></circle>
</g><g id="SvgjsG1094" inkscape:label="loo" transform="matrix(8.1306781,0,0,8.0841901,-285.936,-210.02703)"><rect x="79.442314" y="94.474968" width="47.090099" height="25.702072" style="fill:#8d8f8f;stroke-width:0px" id="SvgjsRect1093"></rect><ellipse cx="85.269875" cy="81.230247" style="fill:#f7b718;stroke-width:0px" id="SvgjsEllipse1092" rx="12.067257" ry="11.801207"></ellipse><ellipse cx="119.49718" cy="81.408348" style="fill:#f7b718;stroke-width:0px" id="SvgjsEllipse1091" rx="12.067257" ry="11.801207"></ellipse><rect x="134.28873" y="-8.6723499" width="8.6739473" height="9.8115168" transform="matrix(0.71494415,0.69918157,-0.71494415,0.69918157,0,0)" style="fill:#f7b718;stroke-width:0px" id="SvgjsRect1090"></rect><rect x="96.982468" y="120.16766" width="10.869157" height="16.722282" style="fill:#f7b718;stroke-width:0px" id="SvgjsRect1089"></rect><ellipse cx="-0.36118409" cy="142.76709" rx="10.144714" ry="22.577465" transform="matrix(0.82743297,-0.5615645,0.57872054,0.81552593,0,0)" style="stroke-width:0px" id="SvgjsEllipse1088"></ellipse><ellipse cx="-25.834904" cy="167.60678" rx="22.942719" ry="10.141912" transform="matrix(0.58956538,-0.80772066,0.81997007,0.5724064,0,0)" style="stroke-width:0px" id="SvgjsEllipse1087"></ellipse><ellipse cx="104.07524" cy="58.752663" rx="20.990702" ry="8.9048033" style="stroke-width:0px" id="SvgjsEllipse1086"></ellipse><ellipse cx="44.339733" cy="91.238007" rx="9.2170086" ry="3.6822929" transform="matrix(0.89449956,-0.44706883,0.46315653,0.8862765,0,0)" style="stroke-width:0px" id="SvgjsEllipse1085"></ellipse><ellipse cx="-1.8648273" cy="117.83717" rx="3.6904893" ry="9.1969767" transform="matrix(0.56152065,-0.82746272,0.83882196,0.54440585,0,0)" style="stroke-width:0px" id="SvgjsEllipse1084"></ellipse><ellipse cx="14.981395" cy="134.86668" rx="3.6904893" ry="9.1969767" transform="matrix(0.56152065,-0.82746272,0.83882196,0.54440585,0,0)" style="stroke-width:0px" id="SvgjsEllipse1083"></ellipse><ellipse cx="119.66013" cy="80.995918" style="fill:#f7b718;stroke-width:0px" id="SvgjsEllipse1082" rx="16.667957" ry="16.300474"></ellipse><ellipse cx="85.269875" cy="81.061531" style="fill:#f7b718;stroke-width:0px" id="SvgjsEllipse1081" rx="16.667957" ry="16.300474"></ellipse><ellipse cx="68.534828" cy="93.275154" style="fill:#f7b718;stroke-width:0px" id="SvgjsEllipse1080" rx="0.067093566" ry="0.065614335"></ellipse><rect x="67.480484" y="87.407372" width="3.7859945" height="11.107571" rx="1.8977895" ry="1.8559483" style="fill:#c0c4c3;stroke-width:0px" id="SvgjsRect1079"></rect><rect x="-56.343189" y="102.00365" width="3.719069" height="11.309227" rx="1.8642421" ry="1.8896428" transform="matrix(0.45120361,-0.89242103,0.90027366,0.43532441,0,0)" style="fill:#c0c4c3;stroke-width:0px" id="SvgjsRect1078"></rect><rect x="134.43028" y="88.166603" width="3.7859945" height="10.73263" style="fill:#c0c4c3;stroke-width:0px" id="SvgjsRect1077"></rect><rect x="-155.73482" y="46.121304" width="4.2964225" height="11.277194" rx="1.8696519" ry="1.8842906" transform="matrix(-0.57872055,-0.81552592,0.82743295,-0.56156452,0,0)" style="fill:#c0c4c3;stroke-width:0px" id="SvgjsRect1076"></rect><rect x="47.924206" y="60.36937" width="15.047653" height="22.118088" rx="6.9443331" ry="6.8005147" transform="matrix(0.98522262,-0.1712787,0.17884396,0.98387745,0,0)" style="fill:#8d8f8f;stroke-width:0px" id="SvgjsRect1075"></rect><rect x="65.755234" y="69.925835" width="3.6230524" height="5.2960138" style="fill:#8d8f8f;stroke-width:0px" id="SvgjsRect1074"></rect><rect x="71.266479" y="52.284958" width="7.5815721" height="8.9891644" style="fill:#8d8f8f;stroke-width:0px" id="SvgjsRect1073"></rect><rect x="114.8241" y="71.724953" width="17.807281" height="11.199054" transform="matrix(0.98653867,-0.16352812,0.17077166,0.98531063,0,0)" style="fill:#8d8f8f;stroke-width:0px" id="SvgjsRect1072"></rect><rect x="-124.02383" y="90.39386" width="14.494383" height="6.2055693" transform="matrix(-0.43247297,-0.9016469,0.90892784,-0.41695345,0,0)" style="fill:#8d8f8f;stroke-width:0px" id="SvgjsRect1071"></rect><rect x="136.08844" y="73.000328" width="2.7987602" height="1.7809606" style="fill:#8d8f8f;stroke-width:0px" id="SvgjsRect1070"></rect><rect x="135.4942" y="59.999306" width="7.3323679" height="8.9048033" style="fill:#8d8f8f;stroke-width:0px" id="SvgjsRect1069"></rect><path d="m 139.34729,84.173514 v 0 c 0,0 0,0 0,0 -0.26835,-2.06217 -0.64219,-4.06809 -1.131,-6.02714 11.49217,-17.68775 6.2972,-29.29212 6.06717,-29.78891 l -0.60384,-1.2748 -1.35146,0.48743 c -9.80524,3.50567 -20.25268,4.03996 -23.36773,4.12432 -5.02243,-2.7558 -10.63912,-4.21806 -16.52419,-4.21806 -5.885062,0 -11.530508,1.47164 -16.562526,4.23681 -2.194919,-0.0375 -13.409131,-0.38431 -23.914065,-4.14307 l -1.351452,-0.48743 -0.603854,1.2748 c -0.230037,0.50617 -5.549594,12.38236 6.498493,30.43568 -0.95847,4.07746 -1.466479,8.38926 -1.466479,12.85103 0,1.6966 0.03842,3.34633 0.11503,4.92107 v 0 l 0.09583,1.53726 c 0.09583,1.47163 0.220441,2.915146 0.392983,4.311786 0.162943,1.39665 0.364218,2.76518 0.594254,4.08684 0.230041,1.32166 0.498411,2.60583 0.795529,3.8525 3.575129,14.96007 11.961824,24.35229 24.671264,27.54864 1.063914,0.27183 2.146995,0.48743 3.268418,0.6749 l 1.236439,0.19683 v -0.028 c 1.99364,0.26246 4.083126,0.40306 6.230116,0.40306 2.147,0 4.17897,-0.13127 6.12469,-0.38435 v 0.0189 c 0,0 1.23644,-0.19684 1.23644,-0.19684 2.80834,-0.44052 5.425,-1.1623 7.85953,-2.14652 13.12159,-5.30539 20.66482,-18.39076 21.96835,-38.328146 0,0 0,-0.0189 0,-0.028 l 0.0958,-1.51851 h -0.009 c 0.0766,-1.57473 0.11505,-3.22447 0.11505,-4.92107 0,-2.54021 -0.1725,-5.03356 -0.48882,-7.46129 z m -3.04797,16.384836 c -0.0383,0.39367 -0.0766,0.78738 -0.11505,1.17169 -0.0287,0.27182 -0.0671,0.53428 -0.0958,0.80612 -0.048,0.37497 -0.0958,0.7405 -0.14373,1.10608 -0.0383,0.27182 -0.0767,0.54366 -0.11505,0.80612 -0.048,0.35622 -0.10538,0.70301 -0.16298,1.04983 -0.048,0.27182 -0.0863,0.53428 -0.13424,0.79675 -0.0576,0.33743 -0.11505,0.67488 -0.1821,1.00295 -0.048,0.26245 -0.10553,0.52491 -0.15341,0.78738 -0.0671,0.32806 -0.13425,0.64677 -0.21086,0.96547 -0.0574,0.26245 -0.11505,0.51554 -0.1821,0.76863 -0.0767,0.30932 -0.15341,0.61866 -0.23006,0.92797 -0.0671,0.25311 -0.13425,0.50616 -0.20126,0.74988 -0.0863,0.29998 -0.16297,0.59989 -0.25878,0.89985 -0.0671,0.2437 -0.14374,0.48742 -0.22046,0.73113 -0.0863,0.2906 -0.1821,0.58115 -0.27795,0.86236 -0.0766,0.23429 -0.15341,0.46867 -0.23006,0.703 -0.0958,0.28116 -0.20126,0.56242 -0.30675,0.84361 -0.0863,0.22499 -0.16297,0.44996 -0.24922,0.66551 -0.10537,0.28116 -0.22046,0.55304 -0.33547,0.82487 -0.0863,0.20621 -0.1725,0.42181 -0.25882,0.62801 -0.11505,0.27182 -0.23966,0.54367 -0.36424,0.81549 -0.0863,0.19684 -0.18209,0.39368 -0.27794,0.59052 -0.13425,0.27183 -0.26835,0.54367 -0.41214,0.80613 -0.0958,0.17809 -0.1821,0.35622 -0.27795,0.53429 -0.15341,0.29061 -0.31627,0.56241 -0.46964,0.84361 -0.0863,0.15004 -0.16297,0.29998 -0.24919,0.44052 -0.20125,0.34681 -0.41214,0.67489 -0.623,1.00295 -0.048,0.075 -0.0958,0.15939 -0.14374,0.23437 -0.26834,0.40306 -0.53675,0.79675 -0.81471,1.19044 -0.048,0.0656 -0.0958,0.12181 -0.13425,0.17809 -0.23962,0.31869 -0.46964,0.6374 -0.71885,0.94673 -0.0958,0.11252 -0.1917,0.22499 -0.27794,0.33743 -0.20126,0.24375 -0.41215,0.49681 -0.61344,0.73114 -0.11505,0.13126 -0.23006,0.25311 -0.34503,0.37496 -0.19174,0.21559 -0.39301,0.4312 -0.59426,0.6374 -0.12454,0.13126 -0.25882,0.25311 -0.38342,0.38429 -0.20126,0.19684 -0.39301,0.39367 -0.59426,0.58115 -0.13424,0.12178 -0.27794,0.24375 -0.41213,0.37497 -0.20126,0.17809 -0.40255,0.35622 -0.61342,0.53428 -0.14374,0.12177 -0.29715,0.23437 -0.44092,0.35622 -0.20126,0.16875 -0.41214,0.32806 -0.62301,0.48743 -0.15341,0.11251 -0.30674,0.22495 -0.46004,0.33743 -0.21086,0.15938 -0.43133,0.30932 -0.64219,0.45929 -0.16298,0.11252 -0.32587,0.21558 -0.48882,0.31869 -0.22046,0.14056 -0.44092,0.28116 -0.66135,0.42181 -0.16298,0.10303 -0.33547,0.19684 -0.50801,0.29998 -0.23006,0.13127 -0.46005,0.26246 -0.6901,0.3843 -0.1725,0.0937 -0.35464,0.1875 -0.52716,0.27182 -0.23006,0.12178 -0.46964,0.23437 -0.70929,0.34681 -0.18209,0.0844 -0.36423,0.16868 -0.54633,0.25311 -0.23963,0.11252 -0.48883,0.21559 -0.72845,0.31869 -0.19173,0.075 -0.37383,0.15939 -0.5655,0.23437 -0.24923,0.0937 -0.49842,0.18747 -0.75721,0.28116 -0.19169,0.075 -0.38341,0.14056 -0.58467,0.20621 -0.25882,0.0844 -0.51757,0.16868 -0.77636,0.25312 -0.20126,0.0656 -0.40255,0.12177 -0.60384,0.18746 -0.25882,0.075 -0.52715,0.15005 -0.79554,0.21559 -0.21086,0.0564 -0.42173,0.11251 -0.6326,0.15938 -0.26835,0.0656 -0.53676,0.12178 -0.80513,0.17809 -0.22046,0.0469 -0.44092,0.0937 -0.66135,0.14056 -0.048,0.009 -0.0958,0.0189 -0.13425,0.028 -1.01599,-2.84016 -1.53358,-5.82093 -1.53358,-8.87668 0,-14.81009 12.25895,-26.864386 27.37417,-26.976856 0,0.0937 -0.0193,0.18746 -0.0193,0.27182 -0.0193,0.271816 -0.048,0.534276 -0.0767,0.796746 z m -42.221022,34.73811 c -0.21086,-0.0374 -0.412146,-0.0937 -0.613421,-0.13127 -0.277985,-0.0656 -0.565505,-0.12181 -0.833874,-0.1875 -0.20126,-0.0469 -0.412146,-0.10303 -0.613421,-0.15938 -0.268384,-0.075 -0.536742,-0.14056 -0.80513,-0.225 -0.20126,-0.0563 -0.402561,-0.12177 -0.603836,-0.18746 -0.258784,-0.0844 -0.517576,-0.15938 -0.776364,-0.25312 -0.191698,-0.0656 -0.39298,-0.14056 -0.58467,-0.20621 -0.249185,-0.0937 -0.498411,-0.1875 -0.747614,-0.28116 -0.191697,-0.0749 -0.373795,-0.15004 -0.565508,-0.23437 -0.239622,-0.10303 -0.488821,-0.20621 -0.728447,-0.31868 -0.182098,-0.0844 -0.364233,-0.16876 -0.546338,-0.25308 -0.239622,-0.11252 -0.469648,-0.23437 -0.709266,-0.35618 -0.172536,-0.0937 -0.354671,-0.1781 -0.517577,-0.27183 -0.230022,-0.12181 -0.460063,-0.25311 -0.6901,-0.38429 -0.162935,-0.0937 -0.335471,-0.19684 -0.49841,-0.29061 -0.230022,-0.14056 -0.450478,-0.28116 -0.670934,-0.42182 -0.162935,-0.10318 -0.316271,-0.20621 -0.469659,-0.31869 -0.220422,-0.15004 -0.440897,-0.30931 -0.651768,-0.45928 -0.153411,-0.11252 -0.297109,-0.21558 -0.450501,-0.32806 -0.220422,-0.16864 -0.431312,-0.3374 -0.642168,-0.50612 -0.134211,-0.11252 -0.277985,-0.22499 -0.412146,-0.33744 -0.21086,-0.1875 -0.431313,-0.37496 -0.642184,-0.56241 -0.124535,-0.11248 -0.258822,-0.225 -0.383395,-0.34681 -0.220422,-0.20621 -0.431316,-0.41243 -0.642187,-0.62801 -0.115011,-0.11252 -0.220422,-0.21559 -0.335433,-0.33744 -0.220422,-0.23437 -0.440912,-0.46866 -0.661352,-0.71239 -0.09583,-0.10303 -0.182105,-0.19683 -0.277969,-0.29998 -0.249203,-0.28116 -0.479242,-0.56241 -0.718865,-0.85298 -0.0576,-0.0749 -0.115026,-0.14056 -0.17254,-0.20621 -0.881799,-1.10604 -1.696507,-2.30584 -2.453706,-3.58065 -0.04791,-0.0749 -0.08631,-0.15938 -0.134222,-0.23436 -0.201275,-0.34681 -0.392983,-0.69363 -0.594255,-1.05921 -0.06711,-0.12177 -0.124546,-0.25311 -0.191709,-0.37496 -0.162943,-0.31869 -0.325886,-0.6374 -0.488829,-0.96547 -0.06711,-0.15005 -0.143743,-0.30932 -0.210871,-0.45929 -0.143743,-0.30931 -0.287569,-0.62802 -0.431314,-0.94673 -0.07663,-0.16875 -0.143743,-0.3468 -0.210871,-0.51553 -0.124547,-0.30931 -0.258803,-0.61865 -0.383396,-0.93735 -0.06711,-0.18747 -0.143743,-0.37493 -0.210871,-0.56241 -0.115026,-0.30932 -0.230041,-0.62803 -0.345048,-0.94673 -0.06711,-0.19683 -0.134222,-0.40305 -0.201275,-0.60927 -0.105347,-0.31869 -0.210871,-0.63739 -0.306731,-0.9561 -0.06711,-0.21558 -0.124547,-0.43119 -0.191709,-0.64676 -0.09583,-0.31869 -0.191709,-0.64678 -0.277969,-0.97485 -0.0576,-0.22499 -0.11503,-0.4499 -0.182106,-0.67488 -0.08631,-0.32806 -0.162943,-0.66552 -0.249203,-1.00296 -0.0576,-0.23437 -0.11503,-0.46867 -0.162943,-0.70301 -0.07663,-0.33744 -0.143743,-0.67489 -0.220437,-1.02172 -0.04791,-0.24374 -0.105347,-0.49681 -0.153422,-0.74051 -0.06711,-0.34681 -0.124547,-0.69364 -0.191709,-1.04045 -0.04791,-0.25312 -0.08631,-0.51554 -0.134223,-0.77801 -0.0576,-0.35622 -0.11503,-0.70301 -0.162943,-1.0592 -0.03842,-0.27182 -0.07663,-0.53428 -0.11503,-0.80612 -0.04791,-0.35622 -0.09583,-0.72176 -0.134222,-1.08733 -0.03842,-0.27182 -0.06711,-0.55304 -0.09583,-0.83424 -0.03842,-0.36559 -0.07663,-0.7405 -0.115026,-1.11545 -0.02857,-0.29057 -0.0576,-0.57178 -0.08631,-0.862356 0,-0.0844 -0.0094,-0.15938 -0.0192,-0.2437 15.067297,0.16868 27.259157,12.204256 27.259157,26.976856 0,3.03701 -0.507991,6.01777 -1.523993,8.85794 -0.04792,0 -0.09581,-0.0189 -0.143735,-0.028 z M 82.634051,57.646584 c 6.383474,1.04045 11.837227,4.79921 15.076887,10.00149 -3.306754,-2.8964 -7.658257,-4.67736 -12.441067,-4.67736 -3.623052,0 -6.996902,1.03109 -9.862755,2.78392 2.051146,-3.13074 4.4761,-5.85842 7.226935,-8.10805 z m 46.907989,8.22053 c -2.90419,-1.81845 -6.34513,-2.88703 -10.04486,-2.88703 -4.64863,0 -8.90428,1.68723 -12.18228,4.4524 3.25884,-5.0898 8.6359,-8.74545 14.92353,-9.77653 2.77959,2.27775 5.2333,5.04293 7.29403,8.22053 z m 7.17901,25.76769 c 0,1.6591 -0.0383,3.27134 -0.11505,4.8086 -3.39302,0 -6.65185,0.55303 -9.7094,1.54662 4.34191,-1.83721 7.83078,-5.24915 9.71898,-9.49533 0.0575,1.03108 0.0958,2.08091 0.0958,3.14011 z M 85.279455,66.026464 c 8.578394,0 15.556125,6.82389 15.556125,15.21315 0,8.38927 -6.977731,15.21316 -15.556125,15.21316 -8.57839,0 -15.556121,-6.82389 -15.556121,-15.21316 0,-8.38926 6.977731,-15.21315 15.556121,-15.21315 z m 17.118445,22.48697 c 1.01599,2.28713 2.51122,4.32118 4.34191,5.99902 l -4.57194,4.47116 -4.351502,-4.25556 c 1.945719,-1.72472 3.517622,-3.83376 4.591122,-6.22399 z m 1.55275,-7.28319 c 0,-8.38926 6.97773,-15.21315 15.55611,-15.21315 8.5784,0 15.55613,6.82389 15.55613,15.21315 0,8.38926 -6.97773,15.21316 -15.55613,15.21316 -8.57838,0 -15.55611,-6.8239 -15.55611,-15.21316 z m -35.780048,10.39518 c 0,-0.99358 0.03842,-1.96843 0.08631,-2.94326 1.907309,4.15245 5.348251,7.4894 9.623071,9.29848 -3.019207,-0.98422 -6.249285,-1.53724 -9.594378,-1.54662 -0.07669,-1.53725 -0.115018,-3.14949 -0.115003,-4.8086 z m 11.635943,7.05823 c 1.725263,0.51554 3.565542,0.80612 5.472914,0.80612 3.699731,0 7.131092,-1.06857 10.035285,-2.88703 l 6.843536,6.692656 7.01607,-6.870746 c 2.9617,1.93093 6.50808,3.05575 10.32283,3.05575 1.90737,0 3.73806,-0.2812 5.47292,-0.80612 -8.79885,3.533796 -15.55612,10.957586 -18.029,20.068606 -1.43772,0.14056 -2.92336,0.21558 -4.49527,0.21558 -1.57191,0 -3.134232,-0.0937 -4.610289,-0.24374 -2.482461,-9.09224 -9.239747,-16.49729 -18.019419,-20.031086 z m 57.240385,-24.54913 c -1.84027,-5.41787 -4.56236,-10.28271 -8.07998,-14.34142 -0.73803,-0.85299 -1.50481,-1.64973 -2.30034,-2.41836 4.2173,0.14996 8.2525,1.45289 11.70303,3.81501 l 1.78277,-2.50272 c -4.20773,-2.87766 -9.1439,-4.39616 -14.30051,-4.39616 -0.15341,0 -0.31627,0 -0.46964,0.009 4.4761,-0.4593 10.47618,-1.40602 16.49543,-3.37445 0.81471,3.11199 1.93613,11.52938 -4.84032,23.20873 z m -19.0354,-19.44059 v 0.0376 h 0.0576 c 0.28751,0.16873 0.58468,0.33744 0.87223,0.51553 -7.61999,2.15582 -13.76385,7.76116 -16.5051,14.97874 -2.741252,-7.21758 -8.885104,-12.83229 -16.505021,-14.97882 4.84032,-3.04638 10.447427,-4.76172 16.505021,-4.76172 5.68378,0 10.95542,1.49975 15.57529,4.19931 z m -55.601396,-3.76814 c 5.990497,1.95906 11.961826,2.91515 16.437922,3.37445 -5.089524,0.028 -9.977769,1.54663 -14.137572,4.38679 l 1.782772,2.50272 c 3.460113,-2.36212 7.495312,-3.66503 11.703039,-3.81501 -0.795542,0.76863 -1.562323,1.56537 -2.300353,2.41836 -3.651808,4.21806 -6.440982,9.30786 -8.281263,14.97882 -7.188597,-12.0168 -6.03842,-20.67789 -5.21413,-23.83676 z m 34.917412,84.867456 c 1.006402,-3.00889 1.523981,-6.13963 1.523981,-9.33598 0,-1.57474 -0.124535,-3.112 -0.364233,-4.62113 1.284356,0.10303 2.587896,0.16875 3.939346,0.16875 1.35146,0 2.5879,-0.0563 3.82434,-0.15004 -0.23966,1.49974 -0.36423,3.037 -0.36423,4.593 0,3.20573 0.51757,6.34584 1.53356,9.35473 -1.60066,0.17809 -3.26842,0.27182 -4.99368,0.27182 -1.72527,0 -3.469695,-0.0937 -5.099114,-0.28116 z" style="stroke-width:0px" id="SvgjsPath1068"></path><path d="m 139.34729,84.173514 v 0 c 0,0 0,0 0,0 -0.26835,-2.06217 -0.64219,-4.06809 -1.131,-6.02714 11.49217,-17.68775 6.2972,-29.29212 6.06717,-29.78891 l -0.60384,-1.2748 -1.35146,0.48743 c -9.80524,3.50567 -20.25268,4.03996 -23.36773,4.12432 -5.02243,-2.7558 -10.63912,-4.21806 -16.52419,-4.21806 -5.885062,0 -11.530508,1.47164 -16.562526,4.23681 -2.194919,-0.0375 -13.409131,-0.38431 -23.914065,-4.14307 l -1.351452,-0.48743 -0.603854,1.2748 c -0.230037,0.50617 -5.549594,12.38236 6.498493,30.43568 -0.95847,4.07746 -1.466479,8.38926 -1.466479,12.85103 0,1.6966 0.03842,3.34633 0.11503,4.92107 v 0 l 0.09583,1.53726 c 0.09583,1.47163 0.220441,2.915146 0.392983,4.311786 0.162943,1.39665 0.364218,2.76518 0.594254,4.08684 0.230041,1.32166 0.498411,2.60583 0.795529,3.8525 3.575129,14.96007 11.961824,24.35229 24.671264,27.54864 1.063914,0.27183 2.146995,0.48743 3.268418,0.6749 l 1.236439,0.19683 v -0.028 c 1.99364,0.26246 4.083126,0.40306 6.230116,0.40306 2.147,0 4.17897,-0.13127 6.12469,-0.38435 v 0.0189 c 0,0 1.23644,-0.19684 1.23644,-0.19684 2.80834,-0.44052 5.425,-1.1623 7.85953,-2.14652 13.12159,-5.30539 20.66482,-18.39076 21.96835,-38.328146 0,0 0,-0.0189 0,-0.028 l 0.0958,-1.51851 h -0.009 c 0.0766,-1.57473 0.11505,-3.22447 0.11505,-4.92107 0,-2.54021 -0.1725,-5.03356 -0.48882,-7.46129 z m -3.04797,16.384836 c -0.0383,0.39367 -0.0766,0.78738 -0.11505,1.17169 -0.0287,0.27182 -0.0671,0.53428 -0.0958,0.80612 -0.048,0.37497 -0.0958,0.7405 -0.14373,1.10608 -0.0383,0.27182 -0.0767,0.54366 -0.11505,0.80612 -0.048,0.35622 -0.10538,0.70301 -0.16298,1.04983 -0.048,0.27182 -0.0863,0.53428 -0.13424,0.79675 -0.0576,0.33743 -0.11505,0.67488 -0.1821,1.00295 -0.048,0.26245 -0.10553,0.52491 -0.15341,0.78738 -0.0671,0.32806 -0.13425,0.64677 -0.21086,0.96547 -0.0574,0.26245 -0.11505,0.51554 -0.1821,0.76863 -0.0767,0.30932 -0.15341,0.61866 -0.23006,0.92797 -0.0671,0.25311 -0.13425,0.50616 -0.20126,0.74988 -0.0863,0.29998 -0.16297,0.59989 -0.25878,0.89985 -0.0671,0.2437 -0.14374,0.48742 -0.22046,0.73113 -0.0863,0.2906 -0.1821,0.58115 -0.27795,0.86236 -0.0766,0.23429 -0.15341,0.46867 -0.23006,0.703 -0.0958,0.28116 -0.20126,0.56242 -0.30675,0.84361 -0.0863,0.22499 -0.16297,0.44996 -0.24922,0.66551 -0.10537,0.28116 -0.22046,0.55304 -0.33547,0.82487 -0.0863,0.20621 -0.1725,0.42181 -0.25882,0.62801 -0.11505,0.27182 -0.23966,0.54367 -0.36424,0.81549 -0.0863,0.19684 -0.18209,0.39368 -0.27794,0.59052 -0.13425,0.27183 -0.26835,0.54367 -0.41214,0.80613 -0.0958,0.17809 -0.1821,0.35622 -0.27795,0.53429 -0.15341,0.29061 -0.31627,0.56241 -0.46964,0.84361 -0.0863,0.15004 -0.16297,0.29998 -0.24919,0.44052 -0.20125,0.34681 -0.41214,0.67489 -0.623,1.00295 -0.048,0.075 -0.0958,0.15939 -0.14374,0.23437 -0.26834,0.40306 -0.53675,0.79675 -0.81471,1.19044 -0.048,0.0656 -0.0958,0.12181 -0.13425,0.17809 -0.23962,0.31869 -0.46964,0.6374 -0.71885,0.94673 -0.0958,0.11252 -0.1917,0.22499 -0.27794,0.33743 -0.20126,0.24375 -0.41215,0.49681 -0.61344,0.73114 -0.11505,0.13126 -0.23006,0.25311 -0.34503,0.37496 -0.19174,0.21559 -0.39301,0.4312 -0.59426,0.6374 -0.12454,0.13126 -0.25882,0.25311 -0.38342,0.38429 -0.20126,0.19684 -0.39301,0.39367 -0.59426,0.58115 -0.13424,0.12178 -0.27794,0.24375 -0.41213,0.37497 -0.20126,0.17809 -0.40255,0.35622 -0.61342,0.53428 -0.14374,0.12177 -0.29715,0.23437 -0.44092,0.35622 -0.20126,0.16875 -0.41214,0.32806 -0.62301,0.48743 -0.15341,0.11251 -0.30674,0.22495 -0.46004,0.33743 -0.21086,0.15938 -0.43133,0.30932 -0.64219,0.45929 -0.16298,0.11252 -0.32587,0.21558 -0.48882,0.31869 -0.22046,0.14056 -0.44092,0.28116 -0.66135,0.42181 -0.16298,0.10303 -0.33547,0.19684 -0.50801,0.29998 -0.23006,0.13127 -0.46005,0.26246 -0.6901,0.3843 -0.1725,0.0937 -0.35464,0.1875 -0.52716,0.27182 -0.23006,0.12178 -0.46964,0.23437 -0.70929,0.34681 -0.18209,0.0844 -0.36423,0.16868 -0.54633,0.25311 -0.23963,0.11252 -0.48883,0.21559 -0.72845,0.31869 -0.19173,0.075 -0.37383,0.15939 -0.5655,0.23437 -0.24923,0.0937 -0.49842,0.18747 -0.75721,0.28116 -0.19169,0.075 -0.38341,0.14056 -0.58467,0.20621 -0.25882,0.0844 -0.51757,0.16868 -0.77636,0.25312 -0.20126,0.0656 -0.40255,0.12177 -0.60384,0.18746 -0.25882,0.075 -0.52715,0.15005 -0.79554,0.21559 -0.21086,0.0564 -0.42173,0.11251 -0.6326,0.15938 -0.26835,0.0656 -0.53676,0.12178 -0.80513,0.17809 -0.22046,0.0469 -0.44092,0.0937 -0.66135,0.14056 -0.048,0.009 -0.0958,0.0189 -0.13425,0.028 -1.01599,-2.84016 -1.53358,-5.82093 -1.53358,-8.87668 0,-14.81009 12.25895,-26.864386 27.37417,-26.976856 0,0.0937 -0.0193,0.18746 -0.0193,0.27182 -0.0193,0.271816 -0.048,0.534276 -0.0767,0.796746 z m -42.221022,34.73811 c -0.21086,-0.0374 -0.412146,-0.0937 -0.613421,-0.13127 -0.277985,-0.0656 -0.565505,-0.12181 -0.833874,-0.1875 -0.20126,-0.0469 -0.412146,-0.10303 -0.613421,-0.15938 -0.268384,-0.075 -0.536742,-0.14056 -0.80513,-0.225 -0.20126,-0.0563 -0.402561,-0.12177 -0.603836,-0.18746 -0.258784,-0.0844 -0.517576,-0.15938 -0.776364,-0.25312 -0.191698,-0.0656 -0.39298,-0.14056 -0.58467,-0.20621 -0.249185,-0.0937 -0.498411,-0.1875 -0.747614,-0.28116 -0.191697,-0.0749 -0.373795,-0.15004 -0.565508,-0.23437 -0.239622,-0.10303 -0.488821,-0.20621 -0.728447,-0.31868 -0.182098,-0.0844 -0.364233,-0.16876 -0.546338,-0.25308 -0.239622,-0.11252 -0.469648,-0.23437 -0.709266,-0.35618 -0.172536,-0.0937 -0.354671,-0.1781 -0.517577,-0.27183 -0.230022,-0.12181 -0.460063,-0.25311 -0.6901,-0.38429 -0.162935,-0.0937 -0.335471,-0.19684 -0.49841,-0.29061 -0.230022,-0.14056 -0.450478,-0.28116 -0.670934,-0.42182 -0.162935,-0.10318 -0.316271,-0.20621 -0.469659,-0.31869 -0.220422,-0.15004 -0.440897,-0.30931 -0.651768,-0.45928 -0.153411,-0.11252 -0.297109,-0.21558 -0.450501,-0.32806 -0.220422,-0.16864 -0.431312,-0.3374 -0.642168,-0.50612 -0.134211,-0.11252 -0.277985,-0.22499 -0.412146,-0.33744 -0.21086,-0.1875 -0.431313,-0.37496 -0.642184,-0.56241 -0.124535,-0.11248 -0.258822,-0.225 -0.383395,-0.34681 -0.220422,-0.20621 -0.431316,-0.41243 -0.642187,-0.62801 -0.115011,-0.11252 -0.220422,-0.21559 -0.335433,-0.33744 -0.220422,-0.23437 -0.440912,-0.46866 -0.661352,-0.71239 -0.09583,-0.10303 -0.182105,-0.19683 -0.277969,-0.29998 -0.249203,-0.28116 -0.479242,-0.56241 -0.718865,-0.85298 -0.0576,-0.0749 -0.115026,-0.14056 -0.17254,-0.20621 -0.881799,-1.10604 -1.696507,-2.30584 -2.453706,-3.58065 -0.04791,-0.0749 -0.08631,-0.15938 -0.134222,-0.23436 -0.201275,-0.34681 -0.392983,-0.69363 -0.594255,-1.05921 -0.06711,-0.12177 -0.124546,-0.25311 -0.191709,-0.37496 -0.162943,-0.31869 -0.325886,-0.6374 -0.488829,-0.96547 -0.06711,-0.15005 -0.143743,-0.30932 -0.210871,-0.45929 -0.143743,-0.30931 -0.287569,-0.62802 -0.431314,-0.94673 -0.07663,-0.16875 -0.143743,-0.3468 -0.210871,-0.51553 -0.124547,-0.30931 -0.258803,-0.61865 -0.383396,-0.93735 -0.06711,-0.18747 -0.143743,-0.37493 -0.210871,-0.56241 -0.115026,-0.30932 -0.230041,-0.62803 -0.345048,-0.94673 -0.06711,-0.19683 -0.134222,-0.40305 -0.201275,-0.60927 -0.105347,-0.31869 -0.210871,-0.63739 -0.306731,-0.9561 -0.06711,-0.21558 -0.124547,-0.43119 -0.191709,-0.64676 -0.09583,-0.31869 -0.191709,-0.64678 -0.277969,-0.97485 -0.0576,-0.22499 -0.11503,-0.4499 -0.182106,-0.67488 -0.08631,-0.32806 -0.162943,-0.66552 -0.249203,-1.00296 -0.0576,-0.23437 -0.11503,-0.46867 -0.162943,-0.70301 -0.07663,-0.33744 -0.143743,-0.67489 -0.220437,-1.02172 -0.04791,-0.24374 -0.105347,-0.49681 -0.153422,-0.74051 -0.06711,-0.34681 -0.124547,-0.69364 -0.191709,-1.04045 -0.04791,-0.25312 -0.08631,-0.51554 -0.134223,-0.77801 -0.0576,-0.35622 -0.11503,-0.70301 -0.162943,-1.0592 -0.03842,-0.27182 -0.07663,-0.53428 -0.11503,-0.80612 -0.04791,-0.35622 -0.09583,-0.72176 -0.134222,-1.08733 -0.03842,-0.27182 -0.06711,-0.55304 -0.09583,-0.83424 -0.03842,-0.36559 -0.07663,-0.7405 -0.115026,-1.11545 -0.02857,-0.29057 -0.0576,-0.57178 -0.08631,-0.862356 0,-0.0844 -0.0094,-0.15938 -0.0192,-0.2437 15.067297,0.16868 27.259157,12.204256 27.259157,26.976856 0,3.03701 -0.507991,6.01777 -1.523993,8.85794 -0.04792,0 -0.09581,-0.0189 -0.143735,-0.028 z M 82.634051,57.646584 c 6.383474,1.04045 11.837227,4.79921 15.076887,10.00149 -3.306754,-2.8964 -7.658257,-4.67736 -12.441067,-4.67736 -3.623052,0 -6.996902,1.03109 -9.862755,2.78392 2.051146,-3.13074 4.4761,-5.85842 7.226935,-8.10805 z m 46.907989,8.22053 c -2.90419,-1.81845 -6.34513,-2.88703 -10.04486,-2.88703 -4.64863,0 -8.90428,1.68723 -12.18228,4.4524 3.25884,-5.0898 8.6359,-8.74545 14.92353,-9.77653 2.77959,2.27775 5.2333,5.04293 7.29403,8.22053 z m 7.17901,25.76769 c 0,1.6591 -0.0383,3.27134 -0.11505,4.8086 -3.39302,0 -6.65185,0.55303 -9.7094,1.54662 4.34191,-1.83721 7.83078,-5.24915 9.71898,-9.49533 0.0575,1.03108 0.0958,2.08091 0.0958,3.14011 z M 85.279455,66.026464 c 8.578394,0 15.556125,6.82389 15.556125,15.21315 0,8.38927 -6.977731,15.21316 -15.556125,15.21316 -8.57839,0 -15.556121,-6.82389 -15.556121,-15.21316 0,-8.38926 6.977731,-15.21315 15.556121,-15.21315 z m 17.118445,22.48697 c 1.01599,2.28713 2.51122,4.32118 4.34191,5.99902 l -4.57194,4.47116 -4.351502,-4.25556 c 1.945719,-1.72472 3.517622,-3.83376 4.591122,-6.22399 z m 1.55275,-7.28319 c 0,-8.38926 6.97773,-15.21315 15.55611,-15.21315 8.5784,0 15.55613,6.82389 15.55613,15.21315 0,8.38926 -6.97773,15.21316 -15.55613,15.21316 -8.57838,0 -15.55611,-6.8239 -15.55611,-15.21316 z m -35.780048,10.39518 c 0,-0.99358 0.03842,-1.96843 0.08631,-2.94326 1.907309,4.15245 5.348251,7.4894 9.623071,9.29848 -3.019207,-0.98422 -6.249285,-1.53724 -9.594378,-1.54662 -0.07669,-1.53725 -0.115018,-3.14949 -0.115003,-4.8086 z m 11.635943,7.05823 c 1.725263,0.51554 3.565542,0.80612 5.472914,0.80612 3.699731,0 7.131092,-1.06857 10.035285,-2.88703 l 6.843536,6.692656 7.01607,-6.870746 c 2.9617,1.93093 6.50808,3.05575 10.32283,3.05575 1.90737,0 3.73806,-0.2812 5.47292,-0.80612 -8.79885,3.533796 -15.55612,10.957586 -18.029,20.068606 -1.43772,0.14056 -2.92336,0.21558 -4.49527,0.21558 -1.57191,0 -3.134232,-0.0937 -4.610289,-0.24374 -2.482461,-9.09224 -9.239747,-16.49729 -18.019419,-20.031086 z m 57.240385,-24.54913 c -1.84027,-5.41787 -4.56236,-10.28271 -8.07998,-14.34142 -0.73803,-0.85299 -1.50481,-1.64973 -2.30034,-2.41836 4.2173,0.14996 8.2525,1.45289 11.70303,3.81501 l 1.78277,-2.50272 c -4.20773,-2.87766 -9.1439,-4.39616 -14.30051,-4.39616 -0.15341,0 -0.31627,0 -0.46964,0.009 4.4761,-0.4593 10.47618,-1.40602 16.49543,-3.37445 0.81471,3.11199 1.93613,11.52938 -4.84032,23.20873 z m -19.0354,-19.44059 v 0.0376 h 0.0576 c 0.28751,0.16873 0.58468,0.33744 0.87223,0.51553 -7.61999,2.15582 -13.76385,7.76116 -16.5051,14.97874 -2.741252,-7.21758 -8.885104,-12.83229 -16.505021,-14.97882 4.84032,-3.04638 10.447427,-4.76172 16.505021,-4.76172 5.68378,0 10.95542,1.49975 15.57529,4.19931 z m -55.601396,-3.76814 c 5.990497,1.95906 11.961826,2.91515 16.437922,3.37445 -5.089524,0.028 -9.977769,1.54663 -14.137572,4.38679 l 1.782772,2.50272 c 3.460113,-2.36212 7.495312,-3.66503 11.703039,-3.81501 -0.795542,0.76863 -1.562323,1.56537 -2.300353,2.41836 -3.651808,4.21806 -6.440982,9.30786 -8.281263,14.97882 -7.188597,-12.0168 -6.03842,-20.67789 -5.21413,-23.83676 z m 34.917412,84.867456 c 1.006402,-3.00889 1.523981,-6.13963 1.523981,-9.33598 0,-1.57474 -0.124535,-3.112 -0.364233,-4.62113 1.284356,0.10303 2.587896,0.16875 3.939346,0.16875 1.35146,0 2.5879,-0.0563 3.82434,-0.15004 -0.23966,1.49974 -0.36423,3.037 -0.36423,4.593 0,3.20573 0.51757,6.34584 1.53356,9.35473 -1.60066,0.17809 -3.26842,0.27182 -4.99368,0.27182 -1.72527,0 -3.469695,-0.0937 -5.099114,-0.28116 z" style="stroke-width:0px" id="SvgjsPath1067"></path><path d="m 139.34729,84.173514 v 0 c 0,0 0,0 0,0 -0.26835,-2.06217 -0.64219,-4.06809 -1.131,-6.02714 11.49217,-17.68775 6.2972,-29.29212 6.06717,-29.78891 l -0.60384,-1.2748 -1.35146,0.48743 c -9.80524,3.50567 -20.25268,4.03996 -23.36773,4.12432 -5.02243,-2.7558 -10.63912,-4.21806 -16.52419,-4.21806 -5.885062,0 -11.530508,1.47164 -16.562526,4.23681 -2.194919,-0.0375 -13.409131,-0.38431 -23.914065,-4.14307 l -1.351452,-0.48743 -0.603854,1.2748 c -0.230037,0.50617 -5.549594,12.38236 6.498493,30.43568 -0.95847,4.07746 -1.466479,8.38926 -1.466479,12.85103 0,1.6966 0.03842,3.34633 0.11503,4.92107 v 0 l 0.09583,1.53726 c 0.09583,1.47163 0.220441,2.915146 0.392983,4.311786 0.162943,1.39665 0.364218,2.76518 0.594254,4.08684 0.230041,1.32166 0.498411,2.60583 0.795529,3.8525 3.575129,14.96007 11.961824,24.35229 24.671264,27.54864 1.063914,0.27183 2.146995,0.48743 3.268418,0.6749 l 1.236439,0.19683 v -0.028 c 1.99364,0.26246 4.083126,0.40306 6.230116,0.40306 2.147,0 4.17897,-0.13127 6.12469,-0.38435 v 0.0189 c 0,0 1.23644,-0.19684 1.23644,-0.19684 2.80834,-0.44052 5.425,-1.1623 7.85953,-2.14652 13.12159,-5.30539 20.66482,-18.39076 21.96835,-38.328146 0,0 0,-0.0189 0,-0.028 l 0.0958,-1.51851 h -0.009 c 0.0766,-1.57473 0.11505,-3.22447 0.11505,-4.92107 0,-2.54021 -0.1725,-5.03356 -0.48882,-7.46129 z m -3.04797,16.384836 c -0.0383,0.39367 -0.0766,0.78738 -0.11505,1.17169 -0.0287,0.27182 -0.0671,0.53428 -0.0958,0.80612 -0.048,0.37497 -0.0958,0.7405 -0.14373,1.10608 -0.0383,0.27182 -0.0767,0.54366 -0.11505,0.80612 -0.048,0.35622 -0.10538,0.70301 -0.16298,1.04983 -0.048,0.27182 -0.0863,0.53428 -0.13424,0.79675 -0.0576,0.33743 -0.11505,0.67488 -0.1821,1.00295 -0.048,0.26245 -0.10553,0.52491 -0.15341,0.78738 -0.0671,0.32806 -0.13425,0.64677 -0.21086,0.96547 -0.0574,0.26245 -0.11505,0.51554 -0.1821,0.76863 -0.0767,0.30932 -0.15341,0.61866 -0.23006,0.92797 -0.0671,0.25311 -0.13425,0.50616 -0.20126,0.74988 -0.0863,0.29998 -0.16297,0.59989 -0.25878,0.89985 -0.0671,0.2437 -0.14374,0.48742 -0.22046,0.73113 -0.0863,0.2906 -0.1821,0.58115 -0.27795,0.86236 -0.0766,0.23429 -0.15341,0.46867 -0.23006,0.703 -0.0958,0.28116 -0.20126,0.56242 -0.30675,0.84361 -0.0863,0.22499 -0.16297,0.44996 -0.24922,0.66551 -0.10537,0.28116 -0.22046,0.55304 -0.33547,0.82487 -0.0863,0.20621 -0.1725,0.42181 -0.25882,0.62801 -0.11505,0.27182 -0.23966,0.54367 -0.36424,0.81549 -0.0863,0.19684 -0.18209,0.39368 -0.27794,0.59052 -0.13425,0.27183 -0.26835,0.54367 -0.41214,0.80613 -0.0958,0.17809 -0.1821,0.35622 -0.27795,0.53429 -0.15341,0.29061 -0.31627,0.56241 -0.46964,0.84361 -0.0863,0.15004 -0.16297,0.29998 -0.24919,0.44052 -0.20125,0.34681 -0.41214,0.67489 -0.623,1.00295 -0.048,0.075 -0.0958,0.15939 -0.14374,0.23437 -0.26834,0.40306 -0.53675,0.79675 -0.81471,1.19044 -0.048,0.0656 -0.0958,0.12181 -0.13425,0.17809 -0.23962,0.31869 -0.46964,0.6374 -0.71885,0.94673 -0.0958,0.11252 -0.1917,0.22499 -0.27794,0.33743 -0.20126,0.24375 -0.41215,0.49681 -0.61344,0.73114 -0.11505,0.13126 -0.23006,0.25311 -0.34503,0.37496 -0.19174,0.21559 -0.39301,0.4312 -0.59426,0.6374 -0.12454,0.13126 -0.25882,0.25311 -0.38342,0.38429 -0.20126,0.19684 -0.39301,0.39367 -0.59426,0.58115 -0.13424,0.12178 -0.27794,0.24375 -0.41213,0.37497 -0.20126,0.17809 -0.40255,0.35622 -0.61342,0.53428 -0.14374,0.12177 -0.29715,0.23437 -0.44092,0.35622 -0.20126,0.16875 -0.41214,0.32806 -0.62301,0.48743 -0.15341,0.11251 -0.30674,0.22495 -0.46004,0.33743 -0.21086,0.15938 -0.43133,0.30932 -0.64219,0.45929 -0.16298,0.11252 -0.32587,0.21558 -0.48882,0.31869 -0.22046,0.14056 -0.44092,0.28116 -0.66135,0.42181 -0.16298,0.10303 -0.33547,0.19684 -0.50801,0.29998 -0.23006,0.13127 -0.46005,0.26246 -0.6901,0.3843 -0.1725,0.0937 -0.35464,0.1875 -0.52716,0.27182 -0.23006,0.12178 -0.46964,0.23437 -0.70929,0.34681 -0.18209,0.0844 -0.36423,0.16868 -0.54633,0.25311 -0.23963,0.11252 -0.48883,0.21559 -0.72845,0.31869 -0.19173,0.075 -0.37383,0.15939 -0.5655,0.23437 -0.24923,0.0937 -0.49842,0.18747 -0.75721,0.28116 -0.19169,0.075 -0.38341,0.14056 -0.58467,0.20621 -0.25882,0.0844 -0.51757,0.16868 -0.77636,0.25312 -0.20126,0.0656 -0.40255,0.12177 -0.60384,0.18746 -0.25882,0.075 -0.52715,0.15005 -0.79554,0.21559 -0.21086,0.0564 -0.42173,0.11251 -0.6326,0.15938 -0.26835,0.0656 -0.53676,0.12178 -0.80513,0.17809 -0.22046,0.0469 -0.44092,0.0937 -0.66135,0.14056 -0.048,0.009 -0.0958,0.0189 -0.13425,0.028 -1.01599,-2.84016 -1.53358,-5.82093 -1.53358,-8.87668 0,-14.81009 12.25895,-26.864386 27.37417,-26.976856 0,0.0937 -0.0193,0.18746 -0.0193,0.27182 -0.0193,0.271816 -0.048,0.534276 -0.0767,0.796746 z m -42.221022,34.73811 c -0.21086,-0.0374 -0.412146,-0.0937 -0.613421,-0.13127 -0.277985,-0.0656 -0.565505,-0.12181 -0.833874,-0.1875 -0.20126,-0.0469 -0.412146,-0.10303 -0.613421,-0.15938 -0.268384,-0.075 -0.536742,-0.14056 -0.80513,-0.225 -0.20126,-0.0563 -0.402561,-0.12177 -0.603836,-0.18746 -0.258784,-0.0844 -0.517576,-0.15938 -0.776364,-0.25312 -0.191698,-0.0656 -0.39298,-0.14056 -0.58467,-0.20621 -0.249185,-0.0937 -0.498411,-0.1875 -0.747614,-0.28116 -0.191697,-0.0749 -0.373795,-0.15004 -0.565508,-0.23437 -0.239622,-0.10303 -0.488821,-0.20621 -0.728447,-0.31868 -0.182098,-0.0844 -0.364233,-0.16876 -0.546338,-0.25308 -0.239622,-0.11252 -0.469648,-0.23437 -0.709266,-0.35618 -0.172536,-0.0937 -0.354671,-0.1781 -0.517577,-0.27183 -0.230022,-0.12181 -0.460063,-0.25311 -0.6901,-0.38429 -0.162935,-0.0937 -0.335471,-0.19684 -0.49841,-0.29061 -0.230022,-0.14056 -0.450478,-0.28116 -0.670934,-0.42182 -0.162935,-0.10318 -0.316271,-0.20621 -0.469659,-0.31869 -0.220422,-0.15004 -0.440897,-0.30931 -0.651768,-0.45928 -0.153411,-0.11252 -0.297109,-0.21558 -0.450501,-0.32806 -0.220422,-0.16864 -0.431312,-0.3374 -0.642168,-0.50612 -0.134211,-0.11252 -0.277985,-0.22499 -0.412146,-0.33744 -0.21086,-0.1875 -0.431313,-0.37496 -0.642184,-0.56241 -0.124535,-0.11248 -0.258822,-0.225 -0.383395,-0.34681 -0.220422,-0.20621 -0.431316,-0.41243 -0.642187,-0.62801 -0.115011,-0.11252 -0.220422,-0.21559 -0.335433,-0.33744 -0.220422,-0.23437 -0.440912,-0.46866 -0.661352,-0.71239 -0.09583,-0.10303 -0.182105,-0.19683 -0.277969,-0.29998 -0.249203,-0.28116 -0.479242,-0.56241 -0.718865,-0.85298 -0.0576,-0.0749 -0.115026,-0.14056 -0.17254,-0.20621 -0.881799,-1.10604 -1.696507,-2.30584 -2.453706,-3.58065 -0.04791,-0.0749 -0.08631,-0.15938 -0.134222,-0.23436 -0.201275,-0.34681 -0.392983,-0.69363 -0.594255,-1.05921 -0.06711,-0.12177 -0.124546,-0.25311 -0.191709,-0.37496 -0.162943,-0.31869 -0.325886,-0.6374 -0.488829,-0.96547 -0.06711,-0.15005 -0.143743,-0.30932 -0.210871,-0.45929 -0.143743,-0.30931 -0.287569,-0.62802 -0.431314,-0.94673 -0.07663,-0.16875 -0.143743,-0.3468 -0.210871,-0.51553 -0.124547,-0.30931 -0.258803,-0.61865 -0.383396,-0.93735 -0.06711,-0.18747 -0.143743,-0.37493 -0.210871,-0.56241 -0.115026,-0.30932 -0.230041,-0.62803 -0.345048,-0.94673 -0.06711,-0.19683 -0.134222,-0.40305 -0.201275,-0.60927 -0.105347,-0.31869 -0.210871,-0.63739 -0.306731,-0.9561 -0.06711,-0.21558 -0.124547,-0.43119 -0.191709,-0.64676 -0.09583,-0.31869 -0.191709,-0.64678 -0.277969,-0.97485 -0.0576,-0.22499 -0.11503,-0.4499 -0.182106,-0.67488 -0.08631,-0.32806 -0.162943,-0.66552 -0.249203,-1.00296 -0.0576,-0.23437 -0.11503,-0.46867 -0.162943,-0.70301 -0.07663,-0.33744 -0.143743,-0.67489 -0.220437,-1.02172 -0.04791,-0.24374 -0.105347,-0.49681 -0.153422,-0.74051 -0.06711,-0.34681 -0.124547,-0.69364 -0.191709,-1.04045 -0.04791,-0.25312 -0.08631,-0.51554 -0.134223,-0.77801 -0.0576,-0.35622 -0.11503,-0.70301 -0.162943,-1.0592 -0.03842,-0.27182 -0.07663,-0.53428 -0.11503,-0.80612 -0.04791,-0.35622 -0.09583,-0.72176 -0.134222,-1.08733 -0.03842,-0.27182 -0.06711,-0.55304 -0.09583,-0.83424 -0.03842,-0.36559 -0.07663,-0.7405 -0.115026,-1.11545 -0.02857,-0.29057 -0.0576,-0.57178 -0.08631,-0.862356 0,-0.0844 -0.0094,-0.15938 -0.0192,-0.2437 15.067297,0.16868 27.259157,12.204256 27.259157,26.976856 0,3.03701 -0.507991,6.01777 -1.523993,8.85794 -0.04792,0 -0.09581,-0.0189 -0.143735,-0.028 z M 82.634051,57.646584 c 6.383474,1.04045 11.837227,4.79921 15.076887,10.00149 -3.306754,-2.8964 -7.658257,-4.67736 -12.441067,-4.67736 -3.623052,0 -6.996902,1.03109 -9.862755,2.78392 2.051146,-3.13074 4.4761,-5.85842 7.226935,-8.10805 z m 46.907989,8.22053 c -2.90419,-1.81845 -6.34513,-2.88703 -10.04486,-2.88703 -4.64863,0 -8.90428,1.68723 -12.18228,4.4524 3.25884,-5.0898 8.6359,-8.74545 14.92353,-9.77653 2.77959,2.27775 5.2333,5.04293 7.29403,8.22053 z m 7.17901,25.76769 c 0,1.6591 -0.0383,3.27134 -0.11505,4.8086 -3.39302,0 -6.65185,0.55303 -9.7094,1.54662 4.34191,-1.83721 7.83078,-5.24915 9.71898,-9.49533 0.0575,1.03108 0.0958,2.08091 0.0958,3.14011 z M 85.279455,66.026464 c 8.578394,0 15.556125,6.82389 15.556125,15.21315 0,8.38927 -6.977731,15.21316 -15.556125,15.21316 -8.57839,0 -15.556121,-6.82389 -15.556121,-15.21316 0,-8.38926 6.977731,-15.21315 15.556121,-15.21315 z m 17.118445,22.48697 c 1.01599,2.28713 2.51122,4.32118 4.34191,5.99902 l -4.57194,4.47116 -4.351502,-4.25556 c 1.945719,-1.72472 3.517622,-3.83376 4.591122,-6.22399 z m 1.55275,-7.28319 c 0,-8.38926 6.97773,-15.21315 15.55611,-15.21315 8.5784,0 15.55613,6.82389 15.55613,15.21315 0,8.38926 -6.97773,15.21316 -15.55613,15.21316 -8.57838,0 -15.55611,-6.8239 -15.55611,-15.21316 z m -35.780048,10.39518 c 0,-0.99358 0.03842,-1.96843 0.08631,-2.94326 1.907309,4.15245 5.348251,7.4894 9.623071,9.29848 -3.019207,-0.98422 -6.249285,-1.53724 -9.594378,-1.54662 -0.07669,-1.53725 -0.115018,-3.14949 -0.115003,-4.8086 z m 11.635943,7.05823 c 1.725263,0.51554 3.565542,0.80612 5.472914,0.80612 3.699731,0 7.131092,-1.06857 10.035285,-2.88703 l 6.843536,6.692656 7.01607,-6.870746 c 2.9617,1.93093 6.50808,3.05575 10.32283,3.05575 1.90737,0 3.73806,-0.2812 5.47292,-0.80612 -8.79885,3.533796 -15.55612,10.957586 -18.029,20.068606 -1.43772,0.14056 -2.92336,0.21558 -4.49527,0.21558 -1.57191,0 -3.134232,-0.0937 -4.610289,-0.24374 -2.482461,-9.09224 -9.239747,-16.49729 -18.019419,-20.031086 z m 57.240385,-24.54913 c -1.84027,-5.41787 -4.56236,-10.28271 -8.07998,-14.34142 -0.73803,-0.85299 -1.50481,-1.64973 -2.30034,-2.41836 4.2173,0.14996 8.2525,1.45289 11.70303,3.81501 l 1.78277,-2.50272 c -4.20773,-2.87766 -9.1439,-4.39616 -14.30051,-4.39616 -0.15341,0 -0.31627,0 -0.46964,0.009 4.4761,-0.4593 10.47618,-1.40602 16.49543,-3.37445 0.81471,3.11199 1.93613,11.52938 -4.84032,23.20873 z m -19.0354,-19.44059 v 0.0376 h 0.0576 c 0.28751,0.16873 0.58468,0.33744 0.87223,0.51553 -7.61999,2.15582 -13.76385,7.76116 -16.5051,14.97874 -2.741252,-7.21758 -8.885104,-12.83229 -16.505021,-14.97882 4.84032,-3.04638 10.447427,-4.76172 16.505021,-4.76172 5.68378,0 10.95542,1.49975 15.57529,4.19931 z m -55.601396,-3.76814 c 5.990497,1.95906 11.961826,2.91515 16.437922,3.37445 -5.089524,0.028 -9.977769,1.54663 -14.137572,4.38679 l 1.782772,2.50272 c 3.460113,-2.36212 7.495312,-3.66503 11.703039,-3.81501 -0.795542,0.76863 -1.562323,1.56537 -2.300353,2.41836 -3.651808,4.21806 -6.440982,9.30786 -8.281263,14.97882 -7.188597,-12.0168 -6.03842,-20.67789 -5.21413,-23.83676 z m 34.917412,84.867456 c 1.006402,-3.00889 1.523981,-6.13963 1.523981,-9.33598 0,-1.57474 -0.124535,-3.112 -0.364233,-4.62113 1.284356,0.10303 2.587896,0.16875 3.939346,0.16875 1.35146,0 2.5879,-0.0563 3.82434,-0.15004 -0.23966,1.49974 -0.36423,3.037 -0.36423,4.593 0,3.20573 0.51757,6.34584 1.53356,9.35473 -1.60066,0.17809 -3.26842,0.27182 -4.99368,0.27182 -1.72527,0 -3.469695,-0.0937 -5.099114,-0.28116 z" style="stroke-width:0px" id="SvgjsPath1066"></path><path d="m 133.03091,81.230244 c 0,-7.30194 -6.07676,-13.23535 -13.53373,-13.23535 -7.45698,0 -13.53373,5.94279 -13.53373,13.23535 0,7.29256 6.06717,13.23535 13.53373,13.23535 7.46655,0 13.53373,-5.93341 13.53373,-13.23535 z m -23.9524,0 c 0,-5.61471 4.67737,-10.18897 10.41867,-10.18897 5.74129,0 10.41867,4.57426 10.41867,10.18897 0,5.61471 -4.67738,10.18897 -10.41867,10.18897 -5.7413,0 -10.41867,-4.57426 -10.41867,-10.18897 z" style="stroke-width:0px" id="SvgjsPath1065"></path><path d="m 85.269871,94.474964 c 7.466558,0 13.533732,-5.93341 13.533732,-13.23535 0,-7.30193 -6.067174,-13.23535 -13.533732,-13.23535 -7.466557,0 -13.533731,5.94279 -13.533731,13.23535 0,7.29257 6.07676,13.23535 13.533731,13.23535 z m 0,-23.42432 c 5.741291,0 10.418676,4.57426 10.418676,10.18897 0,5.61472 -4.677385,10.18897 -10.418676,10.18897 -5.741296,0 -10.418672,-4.57425 -10.418672,-10.18897 0,-5.61471 4.667795,-10.18897 10.418672,-10.18897 z" style="stroke-width:0px" id="SvgjsPath1064"></path><path d="m 85.269871,94.474964 c 7.466558,0 13.533732,-5.93341 13.533732,-13.23535 0,-7.30193 -6.067174,-13.23535 -13.533732,-13.23535 -7.466557,0 -13.533731,5.94279 -13.533731,13.23535 0,7.29257 6.07676,13.23535 13.533731,13.23535 z m 0,-23.42432 c 5.741291,0 10.418676,4.57426 10.418676,10.18897 0,5.61472 -4.677385,10.18897 -10.418676,10.18897 -5.741296,0 -10.418672,-4.57425 -10.418672,-10.18897 0,-5.61471 4.667795,-10.18897 10.418672,-10.18897 z" style="stroke-width:0px" id="SvgjsPath1063"></path><path d="m 85.269871,94.474964 c 7.466558,0 13.533732,-5.93341 13.533732,-13.23535 0,-7.30193 -6.067174,-13.23535 -13.533732,-13.23535 -7.466557,0 -13.533731,5.94279 -13.533731,13.23535 0,7.29257 6.07676,13.23535 13.533731,13.23535 z m 0,-23.42432 c 5.741291,0 10.418676,4.57426 10.418676,10.18897 0,5.61472 -4.677385,10.18897 -10.418676,10.18897 -5.741296,0 -10.418672,-4.57425 -10.418672,-10.18897 0,-5.61471 4.667795,-10.18897 10.418672,-10.18897 z" style="stroke-width:0px" id="SvgjsPath1062"></path><path d="m 124.66338,81.230244 h -5.1662 v -5.0523 c -2.85627,0 -5.16621,2.259 -5.16621,5.0523 0,2.79329 2.30994,5.0523 5.16621,5.0523 2.85627,0 5.1662,-2.25901 5.1662,-5.0523 z" style="stroke-width:0px" id="SvgjsPath1061"></path><path d="m 124.66338,81.230244 h -5.1662 v -5.0523 c -2.85627,0 -5.16621,2.259 -5.16621,5.0523 0,2.79329 2.30994,5.0523 5.16621,5.0523 2.85627,0 5.1662,-2.25901 5.1662,-5.0523 z" style="stroke-width:0px" id="SvgjsPath1060"></path><path d="m 124.66338,81.230244 h -5.1662 v -5.0523 c -2.85627,0 -5.16621,2.259 -5.16621,5.0523 0,2.79329 2.30994,5.0523 5.16621,5.0523 2.85627,0 5.1662,-2.25901 5.1662,-5.0523 z" style="stroke-width:0px" id="SvgjsPath1059"></path><path d="m 85.269871,86.282544 c 2.856268,0 5.166206,-2.25901 5.166206,-5.0523 h -5.166206 v -5.0523 c -2.856269,0 -5.166206,2.259 -5.166206,5.0523 0,2.79329 2.309937,5.0523 5.166206,5.0523 z" style="stroke-width:0px" id="SvgjsPath1058"></path><path d="m 85.269871,86.282544 c 2.856268,0 5.166206,-2.25901 5.166206,-5.0523 h -5.166206 v -5.0523 c -2.856269,0 -5.166206,2.259 -5.166206,5.0523 0,2.79329 2.309937,5.0523 5.166206,5.0523 z" style="stroke-width:0px" id="SvgjsPath1057"></path><path d="m 85.269871,86.282544 c 2.856268,0 5.166206,-2.25901 5.166206,-5.0523 h -5.166206 v -5.0523 c -2.856269,0 -5.166206,2.259 -5.166206,5.0523 0,2.79329 2.309937,5.0523 5.166206,5.0523 z" style="stroke-width:0px" id="SvgjsPath1056"></path></g>
</svg><style>@media (prefers-color-scheme: light) { :root { filter: none; } }
@media (prefers-color-scheme: dark) { :root { filter: none; } }
</style></svg>